<svg width="49" height="22" viewBox="0 0 49 22" fill="none" xmlns="http://www.w3.org/2000/svg">
<path d="M5.69875 1.73048C5.69875 1.32089 5.49268 1.0905 5.10632 1.0905C4.92602 1.0905 4.77147 1.14169 4.66844 1.24409C4.53965 1.34649 4.43662 1.47449 4.38511 1.65368C4.30784 1.83288 4.25632 2.01207 4.17905 2.26806C4.10178 2.49845 4.05026 2.72885 3.99874 2.95924C3.86996 3.52242 3.68965 4.00881 3.45784 4.3928C3.53511 4.4184 3.63814 4.4696 3.79268 4.5464C3.94723 4.6232 4.05026 4.67439 4.15329 4.69999C4.41087 4.80239 4.61693 4.87919 4.79723 4.87919C4.8745 4.87919 4.95178 4.85359 5.02905 4.82799C5.10632 4.77679 5.15784 4.75119 5.18359 4.69999C5.20935 4.64879 5.26087 4.59759 5.28662 4.572C5.31238 4.5208 5.33814 4.5208 5.33814 4.5208L5.46693 4.5976C5.28662 4.93039 5.10632 5.13518 4.92602 5.21198C4.84875 5.23758 4.71996 5.26318 4.59117 5.26318C4.46238 5.26318 4.30784 5.23758 4.15329 5.18638C3.99875 5.13518 3.81844 5.05838 3.61238 4.98159C3.40632 4.87919 3.27753 4.82799 3.1745 4.80239C3.01996 4.93039 2.8139 5.05838 2.58208 5.13518C2.3245 5.21198 2.06693 5.26318 1.73208 5.26318C1.57753 5.26318 1.42299 5.23758 1.2942 5.18638C1.03662 5.08398 0.933594 4.93038 0.933594 4.75119C0.933594 4.57199 0.985109 4.4184 1.08814 4.316C1.2942 4.08561 1.57753 3.98321 1.93814 3.98321C2.19571 3.98321 2.47905 4.03441 2.76238 4.13681C2.86541 4.18801 3.01996 4.23921 3.1745 4.316C3.25178 4.08561 3.32905 3.80402 3.38056 3.52243C3.43208 3.21524 3.48359 2.95924 3.53511 2.78005C3.58662 2.57525 3.63814 2.39606 3.68965 2.24246C3.74117 2.06327 3.81844 1.90967 3.89571 1.75608C3.97299 1.60248 4.07602 1.47449 4.17905 1.34649C4.41087 1.1161 4.71996 0.988098 5.10632 0.988098C5.38965 0.988098 5.62147 1.0649 5.80178 1.24409C5.98208 1.39769 6.05935 1.62808 6.05935 1.93527C6.05935 2.16566 6.00784 2.37046 5.93056 2.57525C5.85329 2.78005 5.7245 2.95924 5.56996 3.11284C5.41541 3.26643 5.26087 3.39443 5.05481 3.52243C4.84875 3.62483 4.66844 3.70162 4.46238 3.72722L4.41087 3.57363C4.64268 3.52243 4.8745 3.39443 5.05481 3.21523C5.26087 3.03604 5.38965 2.83124 5.49268 2.57525C5.64723 2.21686 5.69875 1.96087 5.69875 1.73048ZM1.06238 4.64879C1.06238 4.80239 1.16541 4.90479 1.34572 4.95598C1.75784 5.05838 2.1442 5.03278 2.53056 4.85359C2.68511 4.77679 2.78814 4.69999 2.86541 4.5976C2.47905 4.3416 2.11844 4.18801 1.78359 4.18801C1.31996 4.21361 1.06238 4.3416 1.06238 4.64879Z" fill="#0E483F"/>
<path d="M7.29692 3.39439H7.76056L7.52874 4.26477C7.50298 4.39276 7.47723 4.49516 7.47723 4.59756C7.47723 4.69995 7.50298 4.75115 7.52874 4.75115C7.5545 4.75115 7.60601 4.72555 7.68329 4.64875C7.7348 4.59756 7.78632 4.52076 7.83783 4.46956L7.9151 4.36716L8.04389 4.49516C7.96662 4.62315 7.88935 4.72555 7.78632 4.82795C7.58026 5.03274 7.42571 5.13514 7.27116 5.13514C7.09086 5.13514 7.01359 5.00714 7.01359 4.75115C7.01359 4.69995 7.01359 4.67435 7.01359 4.64875C6.98783 4.75115 6.93632 4.82795 6.83329 4.90475C6.67874 5.05834 6.49844 5.13514 6.29238 5.13514C6.08632 5.13514 5.93177 5.05834 5.82874 4.93035C5.69995 4.80235 5.64844 4.62316 5.64844 4.41836C5.64844 4.11117 5.75147 3.82958 5.95753 3.62478C6.16359 3.41999 6.39541 3.29199 6.67874 3.29199C6.80753 3.29199 6.93632 3.31759 7.01359 3.39439C7.11662 3.47119 7.16813 3.57359 7.19389 3.70158L7.29692 3.39439ZM6.80753 3.57359C6.7045 3.57359 6.57571 3.62478 6.49844 3.72718C6.42117 3.82958 6.31813 3.93197 6.26662 4.05997C6.2151 4.18797 6.18935 4.31596 6.18935 4.44396C6.18935 4.57196 6.2151 4.67435 6.26662 4.75115C6.31813 4.82795 6.42117 4.87915 6.5242 4.87915C6.62723 4.87915 6.75601 4.82795 6.83329 4.72555C7.01359 4.52076 7.09086 4.29036 7.09086 4.00877C7.11662 3.72718 7.01359 3.57359 6.80753 3.57359Z" fill="#0E483F"/>
<path d="M8.32704 4.08561L8.14673 3.98321C8.24976 3.80401 8.37855 3.67602 8.50734 3.52242C8.66188 3.39443 8.79067 3.31763 8.8937 3.31763C9.07401 3.31763 9.17704 3.39442 9.17704 3.57362C9.17704 3.65042 9.12552 3.80401 9.02249 4.08561C8.91946 4.3672 8.86794 4.52079 8.86794 4.59759C8.86794 4.67439 8.86795 4.72559 8.8937 4.72559C8.8937 4.75119 8.91946 4.75118 8.97098 4.75118C9.15128 4.75118 9.33158 4.67439 9.53764 4.54639C9.71794 4.4184 9.84673 4.2648 9.89825 4.1112L10.1043 3.52242C10.1301 3.47122 10.1558 3.42002 10.2073 3.36882C10.2589 3.34323 10.2846 3.31763 10.3361 3.31763C10.3876 3.31763 10.4134 3.34323 10.4392 3.36882C10.4649 3.39442 10.4907 3.42002 10.4907 3.47122C10.4907 3.52242 10.4907 3.57362 10.4649 3.62482L10.2331 4.2648C10.1043 4.64879 9.92401 5.03278 9.66643 5.39117C9.89825 5.41676 10.1043 5.44236 10.2846 5.51916L10.2589 5.67276C9.97552 5.62156 9.7437 5.59596 9.53764 5.57036C9.35734 5.82636 9.15128 6.00555 8.94522 6.15914C8.73916 6.31274 8.55885 6.38954 8.43007 6.38954C8.27552 6.38954 8.17249 6.36394 8.09522 6.31274C8.01794 6.26154 7.99219 6.15914 7.99219 6.05675C7.99219 5.95435 8.0437 5.85195 8.12098 5.77515C8.19825 5.69836 8.30128 5.62156 8.43007 5.57036C8.68764 5.46797 8.99673 5.39117 9.35734 5.39117C9.3831 5.36557 9.46037 5.23757 9.5634 5.05838C9.66643 4.87918 9.71794 4.75118 9.7437 4.69999C9.3831 4.98158 9.09976 5.13517 8.81643 5.13517C8.7134 5.13517 8.63613 5.10957 8.58461 5.03278C8.5331 4.95598 8.50734 4.87918 8.50734 4.75118C8.50734 4.64879 8.55885 4.46959 8.63613 4.188C8.7134 3.93201 8.76491 3.77841 8.76491 3.75281C8.76491 3.72721 8.76491 3.70162 8.73916 3.70162C8.7134 3.70162 8.7134 3.70161 8.68764 3.72721C8.66188 3.72721 8.63613 3.75282 8.63613 3.77841C8.61037 3.80401 8.61037 3.80401 8.58461 3.82961C8.55885 3.85521 8.55885 3.88081 8.5331 3.90641C8.50734 3.93201 8.50734 3.95761 8.48158 3.98321C8.35279 4.0344 8.32704 4.06001 8.32704 4.08561ZM9.17704 5.59596C9.02249 5.59596 8.86794 5.62156 8.68764 5.67276C8.37855 5.77516 8.19825 5.87755 8.19825 5.97995C8.19825 6.05675 8.24976 6.08235 8.32704 6.08235C8.43007 6.08235 8.55885 6.00555 8.76491 5.87755C8.99673 5.80076 9.12552 5.69836 9.17704 5.59596Z" fill="#0E483F"/>
<path d="M11.0839 4.52076C11.0839 4.75115 11.2384 4.85355 11.5475 4.85355C11.6505 4.85355 11.7793 4.82795 11.8824 4.75115C12.0112 4.69995 12.0884 4.62315 12.1657 4.52076L12.2945 4.59756C12.1399 4.87915 11.8824 5.03274 11.5218 5.10954C11.4445 5.10954 11.3672 5.13514 11.2899 5.13514C11.0839 5.13514 10.9036 5.05834 10.749 4.93035C10.5945 4.80235 10.543 4.62316 10.543 4.41836C10.543 4.21357 10.5945 4.03437 10.7233 3.85518C10.8521 3.67598 11.0066 3.54799 11.1869 3.44559C11.3672 3.34319 11.5475 3.29199 11.7278 3.29199C11.9081 3.29199 12.0627 3.34319 12.1915 3.41999C12.3202 3.49679 12.3975 3.62478 12.3975 3.75278C12.3975 3.88078 12.3718 4.00877 12.2687 4.11117C12.1915 4.21356 12.0884 4.29037 11.9596 4.34156C11.7021 4.44396 11.4445 4.49516 11.2127 4.49516L11.0839 4.52076ZM11.0839 4.36716C11.2899 4.36716 11.4702 4.31596 11.599 4.26477C11.7278 4.21357 11.8308 4.13677 11.8824 4.05997C11.9339 3.98317 11.9596 3.90637 11.9596 3.80398C11.9596 3.72718 11.9339 3.65038 11.8824 3.59918C11.8308 3.54798 11.7793 3.54798 11.7278 3.54798C11.599 3.54798 11.496 3.59918 11.393 3.67598C11.2899 3.75278 11.2127 3.88077 11.1612 3.98317C11.1096 4.11117 11.0839 4.23916 11.0839 4.36716Z" fill="#0E483F"/>
<path d="M14.2515 3.72717C14.1742 3.72717 14.097 3.77837 13.9939 3.88077C13.8909 3.98317 13.7879 4.08556 13.6848 4.23916C13.5303 4.46955 13.3758 4.69995 13.2212 5.00714L13.1439 5.16073H12.7318L12.8348 4.87914C13.0152 4.36716 13.0924 4.05996 13.0924 3.98317C13.0924 3.90637 13.0667 3.82957 13.0409 3.82957C12.9894 3.82957 12.9121 3.90637 12.8348 4.03437C12.8091 4.05997 12.8091 4.08556 12.7833 4.11116C12.7833 4.13676 12.7576 4.16236 12.7318 4.18796C12.7061 4.21356 12.7061 4.23916 12.7061 4.23916L12.5 4.13676C12.6545 3.88077 12.7833 3.70157 12.9121 3.59918C13.0409 3.47118 13.1697 3.41998 13.2985 3.41998C13.35 3.41998 13.4015 3.44558 13.453 3.49678C13.5045 3.54798 13.5303 3.59918 13.5303 3.67598C13.5303 3.75277 13.5303 3.80397 13.5303 3.85517C13.5303 3.90637 13.5045 3.95757 13.5045 4.00877C13.5045 4.05997 13.4788 4.11117 13.453 4.16236C13.4273 4.21356 13.4273 4.26476 13.4015 4.31596C13.4015 4.34156 13.3758 4.39276 13.35 4.44395C13.3242 4.49515 13.3242 4.54635 13.3242 4.54635C13.35 4.46956 13.4273 4.36716 13.5045 4.23916C13.5818 4.11116 13.6333 4.00877 13.6591 3.98317C13.6848 3.95757 13.7106 3.90637 13.7621 3.82957C13.8136 3.77837 13.8394 3.72718 13.8909 3.70158C13.9167 3.67598 13.9682 3.62478 14.0197 3.59918C14.0712 3.54798 14.1227 3.52238 14.1485 3.49678C14.2515 3.44558 14.3545 3.41998 14.4576 3.41998C14.5606 3.41998 14.6379 3.44558 14.7152 3.52238C14.7667 3.57358 14.8182 3.65038 14.8182 3.72717C14.8182 3.80397 14.7924 3.88077 14.7409 3.93197C14.6894 3.98317 14.6379 4.00877 14.5606 4.00877C14.4833 4.00877 14.4318 4.00877 14.4061 3.98317C14.3803 3.95757 14.3545 3.93197 14.3288 3.90637C14.3288 3.75278 14.2773 3.72717 14.2515 3.72717Z" fill="#0E483F"/>
<path d="M15.1536 5.08395C15.0248 5.03275 14.9218 4.98156 14.8702 4.93036C14.8187 4.87916 14.793 4.80236 14.793 4.72556C14.793 4.64877 14.8187 4.59757 14.8445 4.54637C14.896 4.49517 14.9475 4.46957 14.999 4.46957C15.0763 4.46957 15.1278 4.49517 15.1793 4.52077C15.2308 4.57197 15.2566 4.62316 15.2566 4.69996C15.2566 4.77676 15.2051 4.82796 15.1278 4.87916C15.2051 4.95595 15.3081 4.98156 15.4627 4.98156C15.7975 4.98156 15.9521 4.87916 15.9521 4.69996C15.9521 4.57197 15.849 4.49517 15.643 4.41837C15.5657 4.39277 15.4627 4.36717 15.3854 4.31597C15.3081 4.29037 15.2308 4.23918 15.1536 4.16238C15.0763 4.08558 15.0505 4.00878 15.0505 3.93198C15.0505 3.80399 15.1021 3.67599 15.1793 3.59919C15.3596 3.42 15.5915 3.3432 15.9263 3.3432C16.0808 3.3432 16.2354 3.3688 16.3642 3.4456C16.493 3.4968 16.5445 3.59919 16.5445 3.67599C16.5445 3.75279 16.5187 3.85519 16.4672 3.88079C16.4157 3.93199 16.3642 3.95759 16.2869 3.95759C16.2096 3.95759 16.1581 3.93199 16.1066 3.90639C16.0551 3.88079 16.0293 3.82959 16.0293 3.75279C16.0293 3.67599 16.0551 3.62479 16.1324 3.5736C16.0808 3.548 16.0036 3.5224 15.8748 3.5224C15.746 3.5224 15.643 3.548 15.5657 3.5736C15.4627 3.5992 15.4369 3.65039 15.4369 3.70159C15.4369 3.75279 15.4627 3.80399 15.5399 3.85519C15.6172 3.90638 15.6945 3.93199 15.7975 3.95759C15.9005 3.98318 15.9778 4.03438 16.0808 4.05998C16.1839 4.11118 16.2612 4.16238 16.3384 4.23917C16.4157 4.31597 16.4415 4.41837 16.4415 4.54637C16.4415 4.67437 16.3899 4.77676 16.2869 4.85356C16.1066 5.03275 15.849 5.13515 15.5399 5.13515C15.4369 5.16075 15.3081 5.13515 15.1536 5.08395Z" fill="#0E483F"/>
<path d="M17.8555 4.3928C17.8555 4.2392 17.8812 4.1112 17.9585 3.95761C18.0358 3.82961 18.113 3.70162 18.2418 3.62482C18.4994 3.42002 18.757 3.31763 19.0146 3.31763C19.2721 3.31763 19.504 3.39443 19.6585 3.52242C19.8388 3.65042 19.9161 3.82961 19.9161 4.03441C19.9161 4.2392 19.8646 4.4184 19.7358 4.59759C19.6327 4.75119 19.4782 4.90478 19.2721 4.98158C19.0918 5.08398 18.8858 5.10958 18.654 5.10958C18.4221 5.10958 18.2418 5.03278 18.0873 4.90478C17.9327 4.80238 17.8555 4.62319 17.8555 4.3928ZM18.8343 4.98158C18.9373 4.98158 19.0146 4.95598 19.0918 4.90478C19.1691 4.85358 19.2206 4.77679 19.2721 4.67439C19.3494 4.49519 19.4009 4.316 19.4009 4.1112C19.4009 3.90641 19.3752 3.77841 19.2979 3.67602C19.2206 3.57362 19.1176 3.52242 18.9888 3.52242C18.86 3.52242 18.7312 3.59922 18.6024 3.77841C18.4737 3.95761 18.4221 4.1624 18.4221 4.4184C18.3964 4.77679 18.5509 4.98158 18.8343 4.98158Z" fill="#0E483F"/>
<path d="M21.2039 3.59918L21.1266 3.90638C20.9978 4.46956 20.8948 4.85355 20.7918 5.08394C20.6115 5.51913 20.4054 5.77512 20.1478 5.90312C20.0448 5.95432 19.9418 5.97992 19.813 5.97992C19.71 5.97992 19.6327 5.95432 19.5812 5.92872C19.5297 5.87752 19.5039 5.82632 19.5039 5.77512C19.5039 5.72392 19.5297 5.67273 19.5554 5.62153C19.6069 5.57033 19.6327 5.54473 19.71 5.54473C19.7872 5.54473 19.813 5.57033 19.8645 5.59593C19.916 5.62153 19.916 5.67273 19.916 5.69833C19.916 5.74953 19.8903 5.80072 19.8645 5.82632C20.0706 5.80072 20.2509 5.41674 20.4054 4.67436C20.4312 4.54636 20.4569 4.41836 20.4827 4.26477C20.5085 4.11117 20.5342 3.98318 20.56 3.90638L20.6372 3.59918H20.1221L20.1736 3.39439H20.7145C20.9463 2.44722 21.2297 1.78164 21.5388 1.42325C21.7963 1.11606 22.1054 0.962463 22.4918 0.962463C22.6463 0.962463 22.8009 0.988061 22.9039 1.06486C23.0069 1.14166 23.0842 1.24405 23.0842 1.39765C23.0842 1.50005 23.0585 1.55125 22.9812 1.60245C22.9297 1.65364 22.8524 1.67924 22.7751 1.67924C22.6978 1.67924 22.6206 1.65364 22.5691 1.60245C22.5175 1.55125 22.4918 1.50004 22.4918 1.42325C22.4918 1.34645 22.5175 1.26965 22.5691 1.19286C22.466 1.16726 22.3888 1.14166 22.3372 1.14166C22.2857 1.14166 22.2085 1.16726 22.1312 1.21846C22.0539 1.26965 21.9766 1.34645 21.9251 1.42325C21.6933 1.78164 21.4615 2.42162 21.2554 3.36879H21.9509L21.8994 3.57359H21.2039V3.59918Z" fill="#0E483F"/>
<path d="M27.617 5.05836C27.5398 4.98156 27.4883 4.90477 27.4883 4.80237C27.4625 4.69997 27.4625 4.59757 27.4625 4.46958C27.4625 4.34158 27.4883 4.16239 27.5398 3.93199C27.5913 3.6504 27.6943 3.26641 27.8489 2.80563C27.7716 2.80563 27.6686 2.83122 27.5398 2.85682C27.411 2.88242 27.308 2.90802 27.2564 2.90802C27.0761 3.676 26.7928 4.26478 26.3549 4.69997C26.2004 4.85357 26.0201 4.95597 25.814 5.05836C25.608 5.16076 25.3761 5.18636 25.1443 5.18636C24.9125 5.18636 24.6807 5.10956 24.5261 4.98156C24.3458 4.85357 24.2686 4.64877 24.2686 4.41838C24.2686 4.18799 24.3716 3.93199 24.5519 3.7016C24.2428 3.39441 24.0625 3.06162 24.0625 2.65203C24.0625 2.42164 24.114 2.19124 24.1913 1.98645C24.2686 1.78166 24.3973 1.62806 24.5519 1.47447C24.7064 1.34647 24.861 1.21847 25.067 1.14167C25.4534 0.962479 25.8655 0.885681 26.3034 0.885681H27.9004C27.9261 0.885681 27.9519 0.91128 27.9777 0.936879C27.9777 0.962478 27.9777 0.96248 27.9519 0.96248L27.9261 0.988077C27.6686 1.29527 27.4883 1.70486 27.3595 2.24244C27.3337 2.37044 27.2822 2.52403 27.2564 2.70323L27.9004 2.60083C28.2095 1.90965 28.5701 1.47446 28.9564 1.24407C29.0852 1.16727 29.1883 1.14167 29.317 1.14167C29.4201 1.14167 29.5231 1.16727 29.6004 1.21847C29.6777 1.26967 29.7034 1.37207 29.7034 1.47447C29.7034 1.60246 29.6519 1.73046 29.5746 1.85845C29.4973 1.98645 29.3686 2.11445 29.2398 2.21684C28.9564 2.42164 28.6989 2.57523 28.4155 2.67763C28.3125 2.88242 28.2352 3.21521 28.1322 3.6248C28.0292 4.03439 27.9777 4.34158 27.9777 4.52078C27.9777 4.69997 28.0034 4.80237 28.0807 4.80237C28.1837 4.80237 28.3383 4.67437 28.5186 4.41838L28.6731 4.57197C28.5701 4.72557 28.4413 4.85357 28.3125 4.98156C28.1837 5.10956 28.0549 5.16076 27.9261 5.16076C27.7716 5.18636 27.6686 5.13516 27.617 5.05836ZM24.3716 2.78003C24.3716 3.08722 24.4746 3.34321 24.6549 3.548C24.9125 3.31761 25.1958 3.13842 25.5564 3.01042C25.917 2.88242 26.2777 2.80562 26.664 2.78003C26.8443 1.93525 27.0761 1.37207 27.308 1.06488C27.1534 1.03928 26.9731 1.03927 26.767 1.03927C26.561 1.03927 26.3807 1.06488 26.2004 1.09048C26.0201 1.11608 25.8398 1.16727 25.6595 1.21847C25.4792 1.26967 25.3246 1.34647 25.1701 1.44886C25.0155 1.55126 24.8867 1.65366 24.758 1.78166C24.5004 2.03765 24.3716 2.37044 24.3716 2.78003ZM24.6807 3.804C24.5261 4.00879 24.4746 4.18798 24.4746 4.36718C24.4746 4.54637 24.5261 4.69997 24.6292 4.80237C24.7322 4.93037 24.861 4.98156 25.0155 4.98156C25.1701 4.98156 25.3246 4.95596 25.4792 4.87916C25.608 4.82797 25.7367 4.72557 25.8398 4.62317C25.9428 4.52077 26.0458 4.39278 26.1231 4.26478C26.2004 4.13679 26.2776 3.98319 26.3549 3.8296C26.4837 3.548 26.5867 3.24081 26.6383 2.95922C25.814 3.03602 25.1958 3.24081 24.8095 3.6248C24.964 3.7016 25.1186 3.7528 25.2731 3.7528C25.4019 3.7528 25.5049 3.7528 25.5564 3.7528L25.6337 3.9064C25.5307 3.9064 25.4276 3.93199 25.3246 3.93199C25.067 3.98319 24.861 3.93199 24.6807 3.804ZM29.3428 1.34647C29.2655 1.34647 29.1625 1.39767 29.0852 1.47447C28.9822 1.55126 28.9049 1.67926 28.8277 1.80725C28.6989 2.03765 28.5701 2.24244 28.4928 2.47283C28.6989 2.39604 28.8792 2.29364 29.0337 2.16564C29.3428 1.93525 29.4716 1.70486 29.4716 1.52566C29.4458 1.39767 29.4201 1.34647 29.3428 1.34647Z" fill="#0E483F"/>
<path d="M30.504 3.39439H30.9676L30.7358 4.26477C30.71 4.39276 30.6843 4.49516 30.6843 4.59756C30.6843 4.69995 30.71 4.75115 30.7358 4.75115C30.7615 4.75115 30.813 4.72555 30.8903 4.64875C30.9418 4.59756 30.9933 4.52076 31.0449 4.46956L31.1221 4.36716L31.2509 4.49516C31.1736 4.62315 31.0964 4.72555 30.9933 4.82795C30.7873 5.03274 30.6327 5.13514 30.4782 5.13514C30.2979 5.13514 30.2206 5.00714 30.2206 4.75115C30.2206 4.69995 30.2206 4.67435 30.2206 4.64875C30.1949 4.75115 30.1433 4.82795 30.0403 4.90475C29.8858 5.05834 29.7055 5.13514 29.4994 5.13514C29.2933 5.13514 29.1388 5.05834 29.0358 4.93035C28.907 4.80235 28.8555 4.62316 28.8555 4.41836C28.8555 4.11117 28.9585 3.82958 29.1646 3.62478C29.3706 3.41999 29.6024 3.29199 29.8858 3.29199C30.0146 3.29199 30.1433 3.31759 30.2206 3.39439C30.3236 3.47119 30.3752 3.57359 30.4009 3.70158L30.504 3.39439ZM30.0146 3.57359C29.9115 3.57359 29.7827 3.62478 29.7055 3.72718C29.6282 3.82958 29.5252 3.93197 29.4737 4.05997C29.4221 4.18797 29.3964 4.31596 29.3964 4.44396C29.3964 4.57196 29.4221 4.67435 29.4737 4.75115C29.5252 4.82795 29.6282 4.87915 29.7312 4.87915C29.8343 4.87915 29.963 4.82795 30.0403 4.72555C30.2206 4.52076 30.2979 4.29036 30.2979 4.00877C30.2979 3.72718 30.2206 3.57359 30.0146 3.57359Z" fill="#0E483F"/>
<path d="M33.4154 4.54642C33.3381 4.72561 33.2093 4.87921 33.029 4.98161C32.8487 5.084 32.6684 5.1608 32.4623 5.1608C32.2563 5.1608 32.076 5.084 31.9472 4.93041C31.8442 5.2888 31.7669 5.54479 31.7154 5.69839C31.5093 6.18477 31.226 6.41516 30.8654 6.41516C30.7881 6.41516 30.7108 6.38957 30.6593 6.33837C30.6078 6.28717 30.582 6.21037 30.582 6.13357C30.582 6.05678 30.6078 6.00558 30.6335 5.95438C30.6851 5.90318 30.7366 5.87758 30.7881 5.87758C30.8654 5.87758 30.9169 5.90318 30.9426 5.92878C30.9942 5.95438 31.0199 6.00558 31.0199 6.08238C31.0199 6.13357 30.9942 6.21037 30.9169 6.28717L30.9426 6.31277C31.0714 6.31277 31.1745 6.13357 31.2775 5.77518C31.329 5.62159 31.3548 5.51919 31.3548 5.44239C31.3805 5.3656 31.3805 5.3144 31.3805 5.2888L31.6896 4.08563C31.5866 4.13683 31.4578 4.26483 31.329 4.44402L31.226 4.31602C31.3032 4.18803 31.4063 4.08563 31.5351 3.95764C31.6639 3.85524 31.7154 3.77844 31.7669 3.75284C31.9214 3.29205 32.076 2.95926 32.2048 2.72887C32.3593 2.49848 32.5139 2.31928 32.6942 2.19128L32.7714 2.26808C32.6426 2.42168 32.5396 2.60087 32.4623 2.83127C32.3851 3.06166 32.3078 3.26646 32.282 3.49685C32.4881 3.42005 32.6942 3.36885 32.8745 3.36885C33.0548 3.36885 33.2093 3.42005 33.3381 3.54805C33.4669 3.67604 33.5184 3.82964 33.5184 4.00883C33.5442 4.18803 33.5184 4.36723 33.4154 4.54642ZM32.2563 3.72724L32.0245 4.72561C32.0502 4.80241 32.1275 4.85361 32.2048 4.90481C32.282 4.95601 32.3851 4.95601 32.4881 4.95601C32.5911 4.95601 32.6942 4.90481 32.7972 4.82801C32.9775 4.64881 33.0548 4.44402 33.0548 4.16243C33.0548 3.90644 32.9775 3.75284 32.8487 3.67604C32.7972 3.65044 32.7199 3.62484 32.6426 3.62484C32.5654 3.57365 32.4366 3.62484 32.2563 3.72724Z" fill="#0E483F"/>
<path d="M35.8333 4.54642C35.7561 4.72561 35.6273 4.87921 35.447 4.98161C35.2924 5.1096 35.0864 5.1608 34.8803 5.1608C34.6742 5.1608 34.4939 5.084 34.3652 4.93041C34.2621 5.2888 34.1848 5.54479 34.1333 5.69839C33.9273 6.18477 33.6439 6.41516 33.2833 6.41516C33.2061 6.41516 33.1288 6.38957 33.0773 6.33837C33.0258 6.28717 33 6.21037 33 6.13357C33 6.05678 33.0258 6.00558 33.0515 5.95438C33.103 5.90318 33.1545 5.87758 33.2061 5.87758C33.2833 5.87758 33.3348 5.90318 33.3606 5.92878C33.4121 5.95438 33.4379 6.00558 33.4379 6.08238C33.4379 6.13357 33.4121 6.21037 33.3348 6.28717L33.3606 6.31277C33.4894 6.31277 33.5924 6.13357 33.6955 5.77518C33.747 5.62159 33.7727 5.51919 33.7727 5.44239C33.7985 5.3656 33.7985 5.3144 33.7985 5.2888L34.1076 4.08563C34.0045 4.13683 33.8758 4.26483 33.747 4.44402L33.6439 4.31602C33.7212 4.18803 33.8242 4.08563 33.953 3.95764C34.0818 3.85524 34.1333 3.77844 34.1848 3.75284C34.3394 3.29205 34.4939 2.95926 34.6227 2.72887C34.7773 2.49848 34.9318 2.31928 35.1121 2.19128L35.1894 2.26808C35.0606 2.42168 34.9576 2.60087 34.8803 2.83127C34.803 3.06166 34.7258 3.26646 34.7 3.49685C34.9061 3.42005 35.1121 3.36885 35.2924 3.36885C35.4727 3.36885 35.6273 3.42005 35.7561 3.54805C35.8848 3.67604 35.9364 3.82964 35.9364 4.00883C35.9621 4.18803 35.9106 4.36723 35.8333 4.54642ZM34.6742 3.72724L34.4424 4.72561C34.4682 4.80241 34.5455 4.85361 34.6227 4.90481C34.7 4.95601 34.803 4.95601 34.9061 4.95601C35.0091 4.95601 35.1121 4.90481 35.2152 4.82801C35.3955 4.64881 35.4727 4.44402 35.4727 4.16243C35.4727 3.90644 35.3955 3.75284 35.2667 3.67604C35.2152 3.65044 35.1379 3.62484 35.0606 3.62484C34.9576 3.57365 34.8288 3.62484 34.6742 3.72724Z" fill="#0E483F"/>
<path d="M36.737 5.16076C36.6597 5.16076 36.5824 5.13516 36.5309 5.08396C36.4794 5.03277 36.4536 4.95597 36.4536 4.87917C36.4536 4.80237 36.4794 4.67438 36.5309 4.52078C36.5824 4.36719 36.6339 4.23919 36.6597 4.11119C36.7112 3.9832 36.737 3.9064 36.737 3.8552C36.737 3.804 36.7112 3.804 36.6854 3.804C36.6082 3.804 36.5051 3.932 36.3506 4.21359L36.1445 4.11119C36.4279 3.62481 36.7112 3.39442 36.943 3.39442C37.0976 3.39442 37.2006 3.49681 37.2006 3.70161C37.2006 3.7528 37.1748 3.8552 37.1491 3.9832L36.943 4.59758C36.9173 4.64878 36.9173 4.69997 36.9173 4.75117C36.9173 4.80237 36.943 4.82797 36.9688 4.82797C37.046 4.82797 37.1491 4.69998 37.3294 4.46958L37.4582 4.57198C37.3551 4.77677 37.2264 4.93037 37.0718 5.03277C36.9173 5.08397 36.8142 5.16076 36.737 5.16076ZM37.5612 2.47284C37.5612 2.54964 37.5354 2.62644 37.4839 2.67763C37.4324 2.75443 37.3551 2.78003 37.2779 2.78003C37.1748 2.78003 37.1233 2.75443 37.0718 2.70323C37.0203 2.65203 36.9945 2.57524 36.9945 2.49844C36.9945 2.42164 37.0203 2.34484 37.0718 2.26804C37.1233 2.21685 37.2006 2.16565 37.2779 2.16565C37.3551 2.16565 37.4324 2.19125 37.4839 2.24245C37.5354 2.31925 37.5612 2.39604 37.5612 2.47284Z" fill="#0E483F"/>
<path d="M38.4359 4.29038C38.8481 3.6504 39.2087 3.3432 39.5435 3.3432C39.6465 3.3432 39.7238 3.3688 39.8011 3.4456C39.8526 3.5224 39.8784 3.5992 39.8784 3.70159C39.8784 3.80399 39.8268 3.98318 39.7496 4.23918C39.6465 4.49517 39.6208 4.64876 39.6208 4.69996C39.6208 4.75116 39.6465 4.80236 39.6723 4.80236C39.7238 4.80236 39.7753 4.75116 39.8526 4.67437C39.9299 4.59757 40.0071 4.49517 40.0587 4.41837L40.1875 4.54637C40.0587 4.75116 39.9299 4.93036 39.8011 5.03275C39.6723 5.13515 39.5435 5.18635 39.4662 5.18635C39.389 5.18635 39.3117 5.16075 39.2602 5.10955C39.2087 5.05835 39.1829 4.98155 39.1829 4.87916C39.1829 4.77676 39.2344 4.62317 39.3117 4.39277C39.389 4.16238 39.4405 4.00878 39.4405 3.90639C39.4405 3.80399 39.4147 3.75279 39.3375 3.75279C39.2602 3.75279 39.1829 3.80399 39.0799 3.90639C38.9768 4.00878 38.8738 4.11118 38.7708 4.26478C38.6162 4.49517 38.4617 4.72556 38.3072 5.03275L38.2299 5.18635H37.8178L37.9208 4.90476C38.1011 4.39277 38.1784 4.08558 38.1784 4.00878C38.1784 3.90639 38.1526 3.85519 38.1268 3.85519C38.0753 3.85519 37.9981 3.93198 37.9208 4.05998C37.895 4.08558 37.895 4.11118 37.8693 4.13678C37.8693 4.16238 37.8435 4.18798 37.8178 4.21358C37.792 4.23918 37.792 4.26478 37.792 4.26478L37.5859 4.16238C37.7405 3.90639 37.8693 3.72719 37.9981 3.59919C38.1268 3.4712 38.2556 3.42 38.3844 3.42C38.4359 3.42 38.4875 3.4456 38.539 3.4968C38.5905 3.548 38.6162 3.59919 38.6162 3.67599C38.6162 3.75279 38.6162 3.82959 38.5905 3.88079C38.5905 3.95758 38.5647 4.00878 38.5647 4.05998C38.539 4.11118 38.539 4.16238 38.5132 4.23918C38.4359 4.23918 38.4359 4.26478 38.4359 4.29038Z" fill="#0E483F"/>
<path d="M40.8339 4.52076C40.8339 4.75115 40.9884 4.85355 41.2975 4.85355C41.4005 4.85355 41.5293 4.82795 41.6324 4.75115C41.7611 4.69995 41.8384 4.62315 41.9157 4.52076L42.0445 4.59756C41.8899 4.87915 41.6324 5.03274 41.2718 5.10954C41.1945 5.10954 41.1172 5.13514 41.0399 5.13514C40.8339 5.13514 40.6536 5.05834 40.499 4.93035C40.3702 4.80235 40.293 4.62316 40.293 4.41836C40.293 4.21357 40.3445 4.03437 40.4733 3.85518C40.6021 3.67598 40.7566 3.54799 40.9369 3.44559C41.1172 3.34319 41.2975 3.29199 41.4778 3.29199C41.6581 3.29199 41.8127 3.34319 41.9415 3.41999C42.0702 3.49679 42.1475 3.62478 42.1475 3.75278C42.1475 3.88078 42.1218 4.00877 42.0187 4.11117C41.9415 4.21356 41.8384 4.29037 41.7096 4.34156C41.4521 4.44396 41.1945 4.49516 40.9627 4.49516L40.8339 4.52076ZM40.8339 4.36716C41.0399 4.36716 41.2202 4.31596 41.349 4.26477C41.4778 4.21357 41.5808 4.13677 41.6324 4.05997C41.6839 3.98317 41.7096 3.90637 41.7096 3.80398C41.7096 3.72718 41.6839 3.65038 41.6324 3.59918C41.5808 3.54798 41.5293 3.54798 41.4778 3.54798C41.349 3.54798 41.246 3.59918 41.143 3.67598C41.0399 3.75278 40.9627 3.88077 40.9111 3.98317C40.8596 4.11117 40.8339 4.23916 40.8339 4.36716Z" fill="#0E483F"/>
<path d="M42.6614 5.08395C42.5326 5.03275 42.4296 4.98156 42.3781 4.93036C42.3265 4.87916 42.3008 4.80236 42.3008 4.72556C42.3008 4.64877 42.3265 4.59757 42.3523 4.54637C42.4038 4.49517 42.4553 4.46957 42.5068 4.46957C42.5841 4.46957 42.6356 4.49517 42.6871 4.52077C42.7387 4.57197 42.7644 4.62316 42.7644 4.69996C42.7644 4.77676 42.7129 4.82796 42.6356 4.87916C42.7129 4.95595 42.8159 4.98156 42.9705 4.98156C43.3053 4.98156 43.4599 4.87916 43.4599 4.69996C43.4599 4.57197 43.3568 4.49517 43.1508 4.41837C43.0735 4.39277 42.9705 4.36717 42.8932 4.31597C42.8159 4.29037 42.7387 4.23918 42.6614 4.16238C42.5841 4.08558 42.5584 4.00878 42.5584 3.93198C42.5584 3.80399 42.6099 3.67599 42.6871 3.59919C42.8417 3.42 43.0993 3.3432 43.4341 3.3432C43.5887 3.3432 43.7432 3.3688 43.872 3.4456C44.0008 3.4968 44.0523 3.59919 44.0523 3.67599C44.0523 3.75279 44.0265 3.85519 43.975 3.88079C43.9235 3.93199 43.872 3.95759 43.7947 3.95759C43.7174 3.95759 43.6659 3.93199 43.6144 3.90639C43.5629 3.88079 43.5371 3.82959 43.5371 3.75279C43.5371 3.67599 43.5629 3.62479 43.6402 3.5736C43.5887 3.548 43.5114 3.5224 43.3826 3.5224C43.2538 3.5224 43.1508 3.548 43.0735 3.5736C42.9705 3.5992 42.9447 3.65039 42.9447 3.70159C42.9447 3.75279 42.9705 3.80399 43.0477 3.85519C43.125 3.90638 43.2023 3.93199 43.3053 3.95759C43.4084 3.98318 43.4856 4.03438 43.5887 4.05998C43.6917 4.11118 43.769 4.16238 43.8462 4.23917C43.9235 4.31597 43.9493 4.41837 43.9493 4.54637C43.9493 4.67437 43.8977 4.77676 43.7947 4.85356C43.6144 5.03275 43.3568 5.13515 43.0477 5.13515C42.9447 5.16075 42.7902 5.13515 42.6614 5.08395Z" fill="#0E483F"/>
<path d="M44.5911 5.08395C44.4623 5.03275 44.3593 4.98156 44.3077 4.93036C44.2562 4.87916 44.2305 4.80236 44.2305 4.72556C44.2305 4.64877 44.2562 4.59757 44.282 4.54637C44.3335 4.49517 44.385 4.46957 44.4365 4.46957C44.5138 4.46957 44.5653 4.49517 44.6168 4.52077C44.6683 4.57197 44.6941 4.62316 44.6941 4.69996C44.6941 4.77676 44.6426 4.82796 44.5653 4.87916C44.6426 4.95595 44.7456 4.98156 44.9002 4.98156C45.235 4.98156 45.3896 4.87916 45.3896 4.69996C45.3896 4.57197 45.2865 4.49517 45.0805 4.41837C45.0032 4.39277 44.9002 4.36717 44.8229 4.31597C44.7456 4.29037 44.6683 4.23918 44.5911 4.16238C44.5138 4.08558 44.488 4.00878 44.488 3.93198C44.488 3.80399 44.5396 3.67599 44.6168 3.59919C44.7714 3.42 45.029 3.3432 45.3638 3.3432C45.5183 3.3432 45.6729 3.3688 45.8017 3.4456C45.9305 3.4968 45.982 3.59919 45.982 3.67599C45.982 3.75279 45.9562 3.85519 45.9047 3.88079C45.8532 3.93199 45.8017 3.95759 45.7244 3.95759C45.6471 3.95759 45.5956 3.93199 45.5441 3.90639C45.4926 3.88079 45.4668 3.82959 45.4668 3.75279C45.4668 3.67599 45.4926 3.62479 45.5699 3.5736C45.5183 3.548 45.4411 3.5224 45.3123 3.5224C45.1835 3.5224 45.0805 3.548 45.0032 3.5736C44.9002 3.5992 44.8744 3.65039 44.8744 3.70159C44.8744 3.75279 44.9002 3.80399 44.9774 3.85519C45.0547 3.90638 45.132 3.93199 45.235 3.95759C45.338 3.98318 45.4153 4.03438 45.5183 4.05998C45.6214 4.11118 45.6987 4.16238 45.7759 4.23917C45.8532 4.31597 45.879 4.41837 45.879 4.54637C45.879 4.67437 45.8274 4.77676 45.7244 4.85356C45.5441 5.03275 45.2865 5.13515 44.9774 5.13515C44.8744 5.16075 44.7199 5.13515 44.5911 5.08395Z" fill="#0E483F"/>
<path d="M46.9614 4.57202C47.0387 4.57202 47.116 4.59762 47.1675 4.64882C47.219 4.70002 47.2448 4.77682 47.2448 4.85362C47.2448 4.95601 47.219 5.03281 47.1417 5.08401C47.0902 5.13521 47.013 5.16081 46.9357 5.16081C46.8584 5.16081 46.7811 5.13521 46.7296 5.08401C46.6781 5.03281 46.6523 4.95601 46.6523 4.87921C46.6523 4.80242 46.6781 4.70002 46.7554 4.64882C46.8069 4.59762 46.8842 4.57202 46.9614 4.57202ZM47.6569 1.14172H48.1205C47.7084 2.29369 47.3736 3.26646 47.1417 4.08564H46.9614C47.0129 3.31766 47.2448 2.34489 47.6569 1.14172Z" fill="#0E483F"/>
<path d="M18.8091 21.0835C18.6804 21.1091 18.5516 21.1091 18.397 21.1091C17.2637 21.1091 16.8516 20.5459 16.8516 20.0851C16.8516 19.5219 17.3667 18.8308 18.5773 18.5748L18.7319 19.2404C18.0107 19.3683 17.7016 19.6755 17.7016 20.0083C17.7016 20.2643 17.9849 20.4947 18.4485 20.4947C18.5773 20.4947 18.7061 20.4947 18.7834 20.4691L18.8091 21.0835Z" fill="#0E483F"/>
<path d="M19.043 19.9316C19.043 19.266 19.5324 18.5492 20.5369 18.5492C21.3611 18.5492 21.8763 19.01 21.8763 19.7524C21.8763 20.2643 21.5157 21.1091 20.3566 21.0835C19.4551 21.1091 19.043 20.4691 19.043 19.9316ZM21.0521 19.778C21.0521 19.3428 20.846 19.0868 20.5111 19.0868C20.1248 19.0868 19.893 19.4708 19.893 19.8804C19.893 20.3411 20.1505 20.5715 20.4339 20.5715C20.7945 20.5715 21.0521 20.2899 21.0521 19.778Z" fill="#0E483F"/>
<path d="M22.3633 21.0579C22.389 20.8787 22.389 20.1363 22.389 20.0595V19.5987C22.389 19.5475 22.389 18.7028 22.3633 18.626C22.6466 18.626 23.5224 18.6004 23.883 18.5748L23.9087 19.138L23.136 19.1636V19.7011C23.2133 19.7011 23.4451 19.6755 23.8315 19.6755V20.2131H23.136V20.4947C23.136 20.5459 23.136 21.0323 23.136 21.0835H22.3633V21.0579Z" fill="#0E483F"/>
<path d="M24.4492 21.0579C24.475 20.8787 24.475 20.1363 24.475 20.0595V19.5987C24.475 19.5475 24.475 18.7028 24.4492 18.626C24.7326 18.626 25.6083 18.6004 25.9689 18.5748L25.9947 19.138L25.2219 19.1636V19.7011C25.2992 19.7011 25.531 19.6755 25.9174 19.6755V20.2131H25.2219V20.4947C25.2219 20.5459 25.2219 21.0323 25.2219 21.0835H24.4492V21.0579Z" fill="#0E483F"/>
<path d="M28.0806 21.0835C27.9518 21.0835 26.7155 21.0579 26.5352 21.0579C26.5352 20.8787 26.5352 20.1363 26.5352 20.0595V19.5987C26.5352 19.5475 26.5352 18.7028 26.5352 18.626C26.7412 18.626 27.9003 18.5748 28.0291 18.5748L28.0549 19.138C27.9261 19.138 27.3852 19.1636 27.3336 19.1636V19.5987C27.4109 19.5987 27.7973 19.5731 27.9518 19.5731V20.1363C27.8488 20.1363 27.4109 20.1107 27.3336 20.1107V20.5203C27.4367 20.5203 27.9518 20.5203 28.1064 20.5203L28.0806 21.0835Z" fill="#0E483F"/>
<path d="M30.2447 21.0835C30.1159 21.0835 28.8795 21.0579 28.6992 21.0579C28.6992 20.8787 28.6992 20.1363 28.6992 20.0595V19.5987C28.6992 19.5475 28.6992 18.7028 28.6992 18.626C28.9053 18.626 30.0644 18.5748 30.1932 18.5748L30.2189 19.138C30.0901 19.138 29.5492 19.1636 29.4977 19.1636V19.5987C29.575 19.5987 29.9613 19.5731 30.1159 19.5731V20.1363C30.0129 20.1363 29.575 20.1107 29.4977 20.1107V20.5203C29.6007 20.5203 30.1159 20.5203 30.2704 20.5203L30.2447 21.0835Z" fill="#0E483F"/>
<path d="M3.81695 20.9556C3.68816 20.9812 3.55938 20.9812 3.40483 20.9812C2.2715 20.9812 1.85938 20.418 1.85938 19.9572C1.85938 19.394 2.37453 18.7028 3.58513 18.4468L3.73968 19.1124C3.01847 19.2404 2.70937 19.5476 2.70937 19.8804C2.70937 20.1364 2.99271 20.3668 3.45634 20.3668C3.58513 20.3668 3.71392 20.3668 3.79119 20.3412L3.81695 20.9556Z" fill="#0E483F"/>
<path d="M3.97266 20.6739C4.07569 20.4947 5.02872 18.882 5.36357 18.37H5.38932C5.80144 18.9844 6.72872 20.4435 6.88326 20.6483L6.21357 21.0323L5.90447 20.4947L4.87417 20.5459C4.84841 20.5971 4.71963 20.8531 4.64235 21.0323L3.97266 20.6739ZM5.67266 20.0083C5.56963 19.8036 5.44084 19.5732 5.38932 19.4196C5.31205 19.5732 5.18326 19.8292 5.10599 20.0339L5.67266 20.0083Z" fill="#0E483F"/>
<path d="M8.96953 21.0067C8.91802 20.9299 8.32559 20.1875 8.04226 19.8035V19.8803C8.04226 20.1363 8.04226 20.9043 8.06802 20.9811H7.26953C7.26953 20.8787 7.29529 20.2899 7.29529 19.9059V19.5475C7.29529 19.2403 7.26953 18.5491 7.26953 18.4724H8.06802C8.06802 18.5235 8.04226 19.2147 8.04226 19.5219V19.6243C8.29983 19.2915 8.89226 18.5491 8.96953 18.4724L9.5362 18.9843C9.40741 19.1123 8.99529 19.5475 8.81499 19.7267C8.94377 19.8547 9.43317 20.3923 9.58771 20.5203L8.96953 21.0067Z" fill="#0E483F"/>
<path d="M11.5728 20.9556C11.444 20.9556 10.2076 20.93 10.0273 20.93C10.0273 20.7508 10.0273 20.0084 10.0273 19.9316V19.4708C10.0273 19.4196 10.0273 18.5748 10.0273 18.498C10.2334 18.498 11.3925 18.4468 11.5213 18.4468L11.547 19.01C11.4183 19.01 10.8773 19.0356 10.8258 19.0356V19.4708C10.9031 19.4708 11.2895 19.4452 11.444 19.4452V20.0084C11.341 20.0084 10.9031 19.9828 10.8258 19.9828V20.3924C10.9031 20.3924 11.444 20.3924 11.5986 20.3924L11.5728 20.9556Z" fill="#0E483F"/>
<path d="M35.5781 20.93C35.6039 20.7508 35.6039 20.0084 35.6039 19.9316V19.4708C35.6039 19.4196 35.6039 18.5748 35.5781 18.498C35.8615 18.498 36.7372 18.4724 37.0978 18.4468L37.1236 19.01L36.3509 19.0356V19.5732C36.4281 19.5732 36.6599 19.5476 37.0463 19.5476V20.0852H36.3509V20.3668C36.3509 20.418 36.3509 20.9044 36.3509 20.9556H35.5781V20.93Z" fill="#0E483F"/>
<path d="M37.4336 19.8292C37.4336 19.1636 37.923 18.4468 38.9275 18.4468C39.7518 18.4468 40.2669 18.9076 40.2669 19.65C40.2669 20.162 39.9063 21.0068 38.7472 20.9812C37.8457 21.0068 37.4336 20.3668 37.4336 19.8292ZM39.4169 19.6756C39.4169 19.2404 39.2109 18.9844 38.876 18.9844C38.4897 18.9844 38.2578 19.3684 38.2578 19.778C38.2578 20.2388 38.5154 20.4692 38.7987 20.4692C39.1594 20.4692 39.4169 20.1876 39.4169 19.6756Z" fill="#0E483F"/>
<path d="M40.5469 19.8292C40.5469 19.1636 41.0363 18.4468 42.0408 18.4468C42.8651 18.4468 43.3802 18.9076 43.3802 19.65C43.3802 20.162 43.0196 21.0068 41.8605 20.9812C40.959 21.0068 40.5469 20.3668 40.5469 19.8292ZM42.5302 19.6756C42.5302 19.2404 42.3241 18.9844 41.9893 18.9844C41.6029 18.9844 41.3711 19.3684 41.3711 19.778C41.3711 20.2388 41.6287 20.4692 41.912 20.4692C42.2984 20.4692 42.5302 20.1876 42.5302 19.6756Z" fill="#0E483F"/>
<path d="M43.8695 19.4196C43.8695 19.3428 43.8695 18.5748 43.8438 18.498C44.4877 18.498 44.8483 18.5236 45.1831 18.5492C46.0847 18.6772 46.265 19.138 46.265 19.4196C46.265 20.4947 44.9771 20.9555 43.8438 20.9555C43.8695 20.8019 43.8695 19.9315 43.8695 19.8547V19.4196ZM44.6422 20.3411C44.9771 20.2899 45.4407 20.0339 45.4407 19.5476C45.4407 19.138 45.0286 19.0356 44.6422 19.0356V20.3411Z" fill="#0E483F"/>
<path d="M3.6397 13.5061V13.6597C3.6397 14.2741 3.66546 16.0916 3.69122 16.2452H1.78516C1.78516 16.0148 1.81091 14.6581 1.81091 13.7365V12.8917C1.81091 12.2005 1.78516 10.5622 1.78516 10.383H3.69122C3.69122 10.511 3.6397 12.1237 3.6397 12.8149" fill="#0E483F"/>
<path d="M7.39844 15.5541C7.63026 15.1445 9.89692 11.3814 10.6954 10.1526H10.7727C11.0045 10.4854 11.2878 10.895 11.5712 11.3814C12.6272 12.9942 14.0181 15.1189 14.2757 15.4773L12.653 16.4245C12.4212 16.0405 12.009 15.3237 11.906 15.1701L9.45904 15.2981C9.38177 15.4005 9.09844 16.0405 8.91813 16.4245L7.39844 15.5541ZM11.3909 14.0181C11.159 13.5574 10.85 12.9942 10.6954 12.6614C10.4893 13.0454 10.206 13.6341 9.99995 14.0949L11.3909 14.0181Z" fill="#0E483F"/>
<path d="M16.928 13.6854C16.928 13.9926 16.9538 16.0149 16.9795 16.1429H15.1508C15.1765 15.9381 15.1765 13.4038 15.1765 13.2246V12.5846C15.1765 12.3542 15.1508 10.5879 15.125 10.4343C16.2326 10.4343 17.3659 10.4599 18.1129 10.5367C19.3235 10.6903 19.9674 11.151 19.9674 11.8934C19.9674 12.559 19.5553 13.071 18.9114 13.5062C19.1432 13.7878 20.4053 15.0165 20.6114 15.2725L19.1174 16.3733C18.9371 16.0661 17.3402 13.8134 17.1341 13.455C17.4947 13.2502 18.0614 12.815 18.0614 12.2774C18.0614 11.8934 17.8038 11.535 16.9023 11.535V13.6854H16.928Z" fill="#0E483F"/>
<path d="M20.6133 15.5541C20.8451 15.1445 23.1118 11.3814 23.9102 10.1526H23.9875C24.9663 11.6118 27.1557 15.0165 27.4906 15.4773L25.8678 16.4245C25.636 16.0405 25.2239 15.3237 25.1466 15.1701L22.6996 15.2981C22.6224 15.4005 22.339 16.0405 22.1587 16.4245L20.6133 15.5541ZM24.5799 14.0181C24.3481 13.5574 24.039 12.9942 23.8845 12.6614C23.6784 13.0454 23.3951 13.6341 23.189 14.0949L24.5799 14.0181Z" fill="#0E483F"/>
<path d="M33.5446 11.151C33.2355 11.5861 30.7371 15.554 30.1189 16.5012H30.0416C29.1916 15.2212 27.1052 11.6629 26.8477 11.2278L28.5992 10.2806C28.7795 10.639 29.9386 13.0709 30.1961 13.6085C30.428 13.0709 31.7158 10.5366 31.8189 10.2806L33.5446 11.151Z" fill="#0E483F"/>
<path d="M32.7695 15.5541C33.0013 15.1445 35.268 11.3814 36.0665 10.1526H36.1438C37.1226 11.6118 39.312 15.0165 39.6468 15.4773L38.0241 16.4245C37.7923 16.0405 37.3801 15.3237 37.3029 15.1701L34.8559 15.2981C34.7786 15.4005 34.4953 16.0405 34.315 16.4245L32.7695 15.5541ZM36.762 14.0181C36.5301 13.5574 36.221 12.9942 36.0665 12.6614C35.8604 13.0454 35.5771 13.6341 35.371 14.0949L36.762 14.0181Z" fill="#0E483F"/>
<path d="M40.2656 16.1429C40.3171 15.5797 40.5232 11.4582 40.6005 10.383L40.6777 10.3318C41.8368 11.1766 44.4641 13.1222 44.7474 13.327C44.7474 12.8918 44.7217 10.7414 44.7217 10.383L46.3959 10.4342C46.3444 11.0742 46.2671 12.2518 46.1899 13.4294C46.1126 14.6069 46.0611 15.7333 46.0353 16.2709L45.9581 16.3221C44.9793 15.6821 42.0429 13.4038 41.9141 13.3014C41.9141 13.6342 41.9141 15.9637 41.9399 16.2197L40.2656 16.1429Z" fill="#0E483F"/>
<path d="M3.63672 12.9941C4.10036 12.3798 5.62005 10.5366 5.80035 10.3062L7.16551 11.4838C6.85642 11.8166 5.87763 12.7893 5.43975 13.2245C5.72308 13.5573 6.90793 14.7605 7.24278 15.0933L5.80035 16.322C5.67157 16.1428 4.17763 14.2485 3.63672 13.4805" fill="#0E483F"/>
</svg>
