<svg width="88" height="38" viewBox="0 0 88 38" fill="none" xmlns="http://www.w3.org/2000/svg">
<path d="M9.34338 2.38347C9.34338 1.63069 8.96358 1.20724 8.25146 1.20724C7.91913 1.20724 7.63428 1.30134 7.44439 1.48953C7.20701 1.67773 7.01711 1.91298 6.92216 2.24232C6.77974 2.57167 6.68479 2.90101 6.54237 3.3715C6.39994 3.79494 6.30499 4.21838 6.21004 4.64182C5.97267 5.6769 5.64034 6.57084 5.21307 7.27658C5.3555 7.32363 5.5454 7.41773 5.83024 7.55887C6.11509 7.70002 6.30499 7.79412 6.49489 7.84116C6.96964 8.02936 7.34944 8.17051 7.68176 8.17051C7.82418 8.17051 7.96661 8.12346 8.10903 8.07641C8.25146 7.98231 8.34641 7.93526 8.39388 7.84116C8.44136 7.74707 8.5363 7.65297 8.58378 7.60592C8.63125 7.51182 8.67873 7.51182 8.67873 7.51182L8.9161 7.65297C8.58378 8.26461 8.25146 8.641 7.91913 8.78215C7.77671 8.8292 7.53934 8.87624 7.30196 8.87624C7.06459 8.87624 6.77974 8.8292 6.49489 8.7351C6.21004 8.641 5.87772 8.49986 5.49792 8.35871C5.11812 8.17051 4.88075 8.07641 4.69085 8.02937C4.406 8.26461 4.0262 8.49985 3.59893 8.641C3.12418 8.78215 2.64944 8.87624 2.03226 8.87624C1.74742 8.87624 1.46257 8.8292 1.22519 8.7351C0.750446 8.54691 0.560547 8.26461 0.560547 7.93526C0.560547 7.60592 0.655497 7.32362 0.845396 7.13543C1.22519 6.71199 1.74742 6.52379 2.41206 6.52379C2.88681 6.52379 3.40903 6.61789 3.93125 6.80609C4.12115 6.90018 4.406 6.99428 4.69085 7.13543C4.83327 6.71199 4.9757 6.19445 5.07065 5.67691C5.1656 5.11232 5.26055 4.64182 5.3555 4.31248C5.45045 3.93609 5.5454 3.60675 5.64035 3.32445C5.73529 2.99511 5.87772 2.71281 6.02014 2.43052C6.16257 2.14822 6.35247 1.91298 6.54237 1.67773C6.96964 1.25429 7.53934 1.01904 8.25146 1.01904C8.77368 1.01904 9.20095 1.16019 9.53327 1.48953C9.8656 1.77183 10.008 2.19527 10.008 2.75986C10.008 3.1833 9.91307 3.55969 9.77065 3.93609C9.62822 4.31248 9.39085 4.64183 9.106 4.92412C8.82115 5.20642 8.5363 5.44166 8.15651 5.67691C7.77671 5.86511 7.44439 6.00625 7.06459 6.0533L6.96964 5.77101C7.39691 5.67691 7.82418 5.44166 8.15651 5.11231C8.5363 4.78297 8.77368 4.40658 8.96358 3.93609C9.24843 3.2774 9.34338 2.80691 9.34338 2.38347ZM0.797921 7.74707C0.797921 8.02936 0.98782 8.21756 1.32014 8.31166C2.07974 8.49985 2.79186 8.45281 3.50398 8.12346C3.78883 7.98231 3.97873 7.84117 4.12115 7.65297C3.40903 7.18248 2.74439 6.90018 2.12721 6.90018C1.27267 6.94723 0.797921 7.18248 0.797921 7.74707Z" fill="#F0E0C6"/>
<path d="M12.2864 5.44211H13.141L12.7137 7.04177C12.6662 7.27702 12.6188 7.46522 12.6188 7.65341C12.6188 7.84161 12.6662 7.9357 12.7137 7.9357C12.7612 7.9357 12.8561 7.88866 12.9986 7.74751C13.0935 7.65341 13.1885 7.51227 13.2834 7.41817L13.4258 7.22997L13.6632 7.46521C13.5208 7.70046 13.3783 7.88866 13.1885 8.07685C12.8087 8.45325 12.5238 8.64144 12.239 8.64144C11.9066 8.64144 11.7642 8.4062 11.7642 7.9357C11.7642 7.84161 11.7642 7.79456 11.7642 7.74751C11.7167 7.93571 11.6218 8.07685 11.4319 8.218C11.147 8.5003 10.8147 8.64144 10.4349 8.64144C10.0551 8.64144 9.77027 8.5003 9.58037 8.26505C9.343 8.02981 9.24805 7.70046 9.24805 7.32407C9.24805 6.75948 9.43795 6.24194 9.81774 5.86555C10.1975 5.48915 10.6248 5.25391 11.147 5.25391C11.3844 5.25391 11.6218 5.30096 11.7642 5.44211C11.9541 5.58325 12.0491 5.77145 12.0965 6.00669L12.2864 5.44211ZM11.3844 5.77145C11.1945 5.77145 10.9571 5.86554 10.8147 6.05374C10.6723 6.24194 10.4824 6.43013 10.3874 6.66538C10.2925 6.90062 10.245 7.13587 10.245 7.37112C10.245 7.60636 10.2925 7.79456 10.3874 7.9357C10.4824 8.07685 10.6723 8.17095 10.8622 8.17095C11.0521 8.17095 11.2895 8.07686 11.4319 7.88866C11.7642 7.51227 11.9066 7.08882 11.9066 6.57128C11.9541 6.05374 11.7642 5.77145 11.3844 5.77145Z" fill="#F0E0C6"/>
<path d="M14.1855 6.71225L13.8532 6.52405C14.0431 6.19471 14.2805 5.95947 14.5179 5.67718C14.8027 5.44193 15.0401 5.30078 15.23 5.30078C15.5623 5.30078 15.7522 5.44193 15.7522 5.77127C15.7522 5.91242 15.6572 6.19471 15.4673 6.71225C15.2775 7.22979 15.1825 7.51209 15.1825 7.65324C15.1825 7.79438 15.1825 7.88848 15.23 7.88848C15.23 7.93553 15.2774 7.93553 15.3724 7.93553C15.7047 7.93553 16.037 7.79439 16.4168 7.55914C16.7492 7.32389 16.9865 7.04159 17.0815 6.7593L17.4613 5.67718C17.5088 5.58308 17.5562 5.48898 17.6512 5.39488C17.7461 5.34783 17.7936 5.30078 17.8886 5.30078C17.9835 5.30078 18.031 5.34783 18.0785 5.39488C18.1259 5.44193 18.1734 5.48897 18.1734 5.58307C18.1734 5.67717 18.1734 5.77127 18.1259 5.86537L17.6987 7.0416C17.4613 7.74733 17.129 8.45307 16.6542 9.11176C17.0815 9.1588 17.4613 9.20585 17.7936 9.347L17.7461 9.6293C17.2239 9.5352 16.7966 9.48815 16.4168 9.4411C16.0845 9.9116 15.7047 10.2409 15.3249 10.5232C14.9451 10.8055 14.6128 10.9467 14.3754 10.9467C14.0906 10.9467 13.9007 10.8996 13.7583 10.8055C13.6158 10.7114 13.5684 10.5232 13.5684 10.335C13.5684 10.1468 13.6633 9.95864 13.8057 9.81749C13.9482 9.67634 14.1381 9.5352 14.3754 9.4411C14.8502 9.25291 15.4199 9.11176 16.0845 9.11176C16.132 9.06471 16.2744 8.82947 16.4643 8.50012C16.6542 8.17078 16.7492 7.93553 16.7966 7.84143C16.132 8.35897 15.6098 8.64126 15.0875 8.64126C14.8977 8.64126 14.7552 8.59422 14.6603 8.45307C14.5653 8.31192 14.5179 8.17077 14.5179 7.93553C14.5179 7.74733 14.6128 7.41799 14.7552 6.90045C14.8977 6.42996 14.9926 6.14766 14.9926 6.10061C14.9926 6.05357 14.9926 6.00652 14.9451 6.00652C14.8977 6.00652 14.8977 6.00651 14.8502 6.05356C14.8027 6.05356 14.7552 6.10062 14.7552 6.14767C14.7078 6.19472 14.7078 6.19471 14.6603 6.24176C14.6128 6.28881 14.6128 6.33586 14.5653 6.38291C14.5179 6.42996 14.5179 6.477 14.4704 6.52405C14.233 6.61815 14.1855 6.66521 14.1855 6.71225ZM15.7522 9.48815C15.4673 9.48815 15.1825 9.5352 14.8502 9.6293C14.2805 9.81749 13.9482 10.0057 13.9482 10.1939C13.9482 10.335 14.0431 10.3821 14.1855 10.3821C14.3754 10.3821 14.6128 10.2409 14.9926 10.0057C15.4199 9.86455 15.6572 9.67635 15.7522 9.48815Z" fill="#F0E0C6"/>
<path d="M19.2655 7.51226C19.2655 7.93571 19.5504 8.1239 20.1201 8.1239C20.31 8.1239 20.5473 8.07685 20.7372 7.9357C20.9746 7.84161 21.117 7.70046 21.2595 7.51226L21.4968 7.65341C21.212 8.17095 20.7372 8.45325 20.0726 8.5944C19.9302 8.5944 19.7877 8.64144 19.6453 8.64144C19.2655 8.64144 18.9332 8.5003 18.6484 8.26505C18.3635 8.02981 18.2686 7.70046 18.2686 7.32407C18.2686 6.94768 18.3635 6.61833 18.6009 6.28899C18.8383 5.95964 19.1231 5.7244 19.4554 5.5362C19.7877 5.34801 20.1201 5.25391 20.4524 5.25391C20.7847 5.25391 21.0696 5.348 21.3069 5.48915C21.5443 5.6303 21.6867 5.86555 21.6867 6.10079C21.6867 6.33604 21.6393 6.57128 21.4494 6.75948C21.3069 6.94767 21.117 7.08882 20.8797 7.18292C20.4049 7.37112 19.9302 7.46521 19.5029 7.46521L19.2655 7.51226ZM19.2655 7.22997C19.6453 7.22997 19.9776 7.13587 20.215 7.04177C20.4524 6.94768 20.6423 6.80653 20.7372 6.66538C20.8322 6.52423 20.8797 6.38308 20.8797 6.19489C20.8797 6.05374 20.8322 5.91259 20.7372 5.81849C20.6423 5.7244 20.5473 5.7244 20.4524 5.7244C20.215 5.7244 20.0251 5.8185 19.8352 5.95964C19.6453 6.10079 19.5029 6.33603 19.4079 6.52423C19.313 6.75948 19.2655 6.99472 19.2655 7.22997Z" fill="#F0E0C6"/>
<path d="M25.1052 6.05336C24.9628 6.05336 24.8204 6.14746 24.6305 6.33565C24.4406 6.52385 24.2507 6.71204 24.0608 6.99434C23.7759 7.41778 23.4911 7.84122 23.2062 8.40581L23.0638 8.68811H22.3042L22.4941 8.17057C22.8264 7.22959 22.9689 6.665 22.9689 6.52385C22.9689 6.3827 22.9214 6.24156 22.8739 6.24156C22.779 6.24156 22.6365 6.38271 22.4941 6.61795C22.4466 6.665 22.4466 6.71204 22.3992 6.75909C22.3992 6.80614 22.3517 6.85319 22.3042 6.90024C22.2567 6.94729 22.2568 6.99434 22.2568 6.99434L21.877 6.80615C22.1618 6.33565 22.3992 6.00631 22.6365 5.81811C22.8739 5.58287 23.1113 5.48877 23.3487 5.48877C23.4436 5.48877 23.5386 5.53582 23.6335 5.62992C23.7285 5.72402 23.7759 5.81811 23.7759 5.95926C23.7759 6.10041 23.7759 6.1945 23.7759 6.2886C23.7759 6.3827 23.7285 6.4768 23.7285 6.5709C23.7285 6.665 23.681 6.7591 23.6335 6.8532C23.586 6.9473 23.586 7.04139 23.5386 7.13549C23.5386 7.18254 23.4911 7.27664 23.4436 7.37073C23.3961 7.46483 23.3961 7.55893 23.3961 7.55893C23.4436 7.41779 23.586 7.22959 23.7285 6.99434C23.8709 6.75909 23.9658 6.5709 24.0133 6.52385C24.0608 6.4768 24.1083 6.38271 24.2032 6.24156C24.2982 6.14746 24.3456 6.05336 24.4406 6.00631C24.4881 5.95926 24.583 5.86516 24.678 5.81811C24.7729 5.72401 24.8679 5.67697 24.9153 5.62992C25.1052 5.53582 25.2951 5.48877 25.485 5.48877C25.6749 5.48877 25.8174 5.53582 25.9598 5.67697C26.0547 5.77107 26.1497 5.91221 26.1497 6.05336C26.1497 6.1945 26.1022 6.33565 26.0073 6.42975C25.9123 6.52385 25.8174 6.5709 25.6749 6.5709C25.5325 6.5709 25.4376 6.5709 25.3901 6.52385C25.3426 6.4768 25.2951 6.42976 25.2477 6.38271C25.2477 6.10041 25.1527 6.05336 25.1052 6.05336Z" fill="#F0E0C6"/>
<path d="M26.7662 8.547C26.5288 8.4529 26.3389 8.3588 26.244 8.26471C26.149 8.17061 26.1016 8.02946 26.1016 7.88831C26.1016 7.74716 26.149 7.65307 26.1965 7.55897C26.2915 7.46487 26.3864 7.41782 26.4814 7.41782C26.6238 7.41782 26.7187 7.46487 26.8137 7.51192C26.9086 7.60602 26.9561 7.70011 26.9561 7.84126C26.9561 7.98241 26.8612 8.0765 26.7187 8.1706C26.8612 8.31175 27.0511 8.3588 27.3359 8.3588C27.9531 8.3588 28.2379 8.1706 28.2379 7.84126C28.2379 7.60601 28.048 7.46487 27.6682 7.32372C27.5258 7.27668 27.3359 7.22962 27.1935 7.13552C27.0511 7.08847 26.9086 6.99438 26.7662 6.85323C26.6238 6.71209 26.5763 6.57093 26.5763 6.42979C26.5763 6.19454 26.6713 5.95929 26.8137 5.81815C27.146 5.4888 27.5733 5.34766 28.1905 5.34766C28.4753 5.34766 28.7601 5.39471 28.9975 5.53586C29.2349 5.62996 29.3298 5.81815 29.3298 5.9593C29.3298 6.10044 29.2824 6.28864 29.1874 6.33569C29.0925 6.42979 28.9975 6.47684 28.8551 6.47684C28.7127 6.47684 28.6177 6.42979 28.5228 6.38274C28.4278 6.33569 28.3804 6.24159 28.3804 6.10044C28.3804 5.9593 28.4278 5.8652 28.5702 5.7711C28.4753 5.72405 28.3329 5.67701 28.0955 5.67701C27.8581 5.67701 27.6682 5.72405 27.5258 5.7711C27.3359 5.81815 27.2884 5.91225 27.2884 6.00635C27.2884 6.10045 27.3359 6.19454 27.4783 6.28864C27.6208 6.38274 27.7632 6.42979 27.9531 6.47684C28.143 6.52389 28.2854 6.61798 28.4753 6.66503C28.6652 6.75913 28.8076 6.85323 28.95 6.99437C29.0925 7.13552 29.1399 7.32372 29.1399 7.55897C29.1399 7.79422 29.045 7.98241 28.8551 8.12356C28.5228 8.4529 28.048 8.64109 27.4783 8.64109C27.2884 8.68814 27.0511 8.6411 26.7662 8.547Z" fill="#F0E0C6"/>
<path d="M31.751 7.27684C31.751 6.99455 31.7985 6.7593 31.9409 6.47701C32.0833 6.24176 32.2257 6.00652 32.4631 5.86537C32.9378 5.48898 33.4126 5.30078 33.8873 5.30078C34.3621 5.30078 34.7894 5.44193 35.0742 5.67718C35.4065 5.91242 35.549 6.24176 35.549 6.61816C35.549 6.99455 35.454 7.32389 35.2166 7.65324C35.0267 7.93553 34.7419 8.21783 34.3621 8.35897C34.0298 8.54717 33.65 8.59422 33.2227 8.59422C32.7954 8.59422 32.4631 8.45307 32.1782 8.21782C31.8934 8.02963 31.751 7.70028 31.751 7.27684ZM33.555 8.35897C33.7449 8.35897 33.8873 8.31192 34.0298 8.21782C34.1722 8.12373 34.2671 7.98258 34.3621 7.79439C34.5045 7.46504 34.5995 7.13569 34.5995 6.7593C34.5995 6.38291 34.552 6.14766 34.4096 5.95947C34.2671 5.77127 34.0772 5.67718 33.8399 5.67718C33.6025 5.67718 33.3651 5.81832 33.1277 6.14767C32.8904 6.47701 32.7954 6.8534 32.7954 7.32389C32.7479 7.98258 33.0328 8.35897 33.555 8.35897Z" fill="#F0E0C6"/>
<path d="M37.9234 5.81822L37.7809 6.38282C37.5436 7.4179 37.3537 8.12363 37.1638 8.54707C36.8315 9.34691 36.4517 9.8174 35.9769 10.0526C35.787 10.1467 35.5971 10.1938 35.3597 10.1938C35.1698 10.1938 35.0274 10.1467 34.9325 10.0997C34.8375 10.0056 34.79 9.91149 34.79 9.8174C34.79 9.7233 34.8375 9.6292 34.885 9.5351C34.9799 9.44101 35.0274 9.39396 35.1698 9.39396C35.3123 9.39396 35.3597 9.441 35.4547 9.48805C35.5496 9.5351 35.5496 9.6292 35.5496 9.67625C35.5496 9.77035 35.5022 9.86445 35.4547 9.9115C35.8345 9.86445 36.1668 9.15871 36.4517 7.79429C36.4991 7.55904 36.5466 7.3238 36.5941 7.0415C36.6416 6.75921 36.689 6.52396 36.7365 6.38282L36.8789 5.81822H35.9294L36.0244 5.44183H37.0214C37.4486 3.70102 37.9708 2.47773 38.5405 1.81905C39.0153 1.25446 39.585 0.972168 40.2971 0.972168C40.582 0.972168 40.8668 1.01921 41.0567 1.16036C41.2466 1.30151 41.389 1.48971 41.389 1.772C41.389 1.9602 41.3416 2.0543 41.1991 2.1484C41.1042 2.24249 40.9618 2.28954 40.8193 2.28954C40.6769 2.28954 40.5345 2.24249 40.4395 2.1484C40.3446 2.0543 40.2971 1.96019 40.2971 1.81905C40.2971 1.6779 40.3446 1.53675 40.4395 1.39561C40.2496 1.34856 40.1072 1.30151 40.0123 1.30151C39.9173 1.30151 39.7749 1.34856 39.6325 1.44266C39.49 1.53676 39.3476 1.6779 39.2527 1.81905C38.8254 2.47773 38.3981 3.65396 38.0183 5.39478H39.3001L39.2052 5.77118H37.9234V5.81822Z" fill="#F0E0C6"/>
<path d="M49.7449 8.50006C49.6024 8.35891 49.5075 8.21777 49.5075 8.02957C49.46 7.84137 49.46 7.65318 49.46 7.41793C49.46 7.18268 49.5075 6.85334 49.6024 6.4299C49.6974 5.91236 49.8873 5.20662 50.1721 4.35974C50.0297 4.35974 49.8398 4.40679 49.6024 4.45383C49.3651 4.50088 49.1752 4.54793 49.0802 4.54793C48.7479 5.9594 48.2257 7.04153 47.4186 7.84137C47.1338 8.12366 46.8014 8.31186 46.4216 8.50006C46.0418 8.68826 45.6146 8.73531 45.1873 8.73531C44.76 8.73531 44.3328 8.59416 44.0479 8.35891C43.7156 8.12367 43.5732 7.74728 43.5732 7.32383C43.5732 6.90039 43.7631 6.4299 44.0954 6.00646C43.5257 5.44187 43.1934 4.83023 43.1934 4.07744C43.1934 3.654 43.2883 3.23056 43.4307 2.85417C43.5732 2.47777 43.8105 2.19548 44.0954 1.91319C44.3802 1.67794 44.6651 1.44269 45.0449 1.30155C45.757 0.972202 46.5166 0.831055 47.3237 0.831055H50.2671C50.3146 0.831055 50.362 0.878102 50.4095 0.925151C50.4095 0.972201 50.4095 0.972203 50.362 0.972203L50.3146 1.01925C49.8398 1.58384 49.5075 2.33663 49.2701 3.32466C49.2226 3.5599 49.1277 3.84219 49.0802 4.17154L50.2671 3.98334C50.8368 2.71302 51.5014 1.91318 52.2136 1.48974C52.4509 1.34859 52.6408 1.30155 52.8782 1.30155C53.0681 1.30155 53.258 1.3486 53.4004 1.44269C53.5429 1.53679 53.5903 1.72499 53.5903 1.91319C53.5903 2.14843 53.4954 2.38368 53.353 2.61892C53.2105 2.85417 52.9732 3.08941 52.7358 3.27761C52.2136 3.654 51.7388 3.9363 51.2166 4.12449C51.0267 4.50089 50.8843 5.11252 50.6944 5.86531C50.5045 6.61809 50.4095 7.18268 50.4095 7.51203C50.4095 7.84137 50.457 8.02957 50.5994 8.02957C50.7893 8.02957 51.0742 7.79432 51.4065 7.32383L51.6913 7.60612C51.5014 7.88842 51.2641 8.12367 51.0267 8.35891C50.7893 8.59416 50.5519 8.68825 50.3146 8.68825C50.0297 8.7353 49.8398 8.64121 49.7449 8.50006ZM43.7631 4.31269C43.7631 4.87728 43.953 5.34777 44.2853 5.72416C44.76 5.30072 45.2822 4.97138 45.9469 4.73613C46.6115 4.50089 47.2762 4.35974 47.9883 4.31269C48.3206 2.76007 48.7479 1.72499 49.1752 1.1604C48.8903 1.11335 48.558 1.11335 48.1782 1.11335C47.7984 1.11335 47.4661 1.1604 47.1338 1.20745C46.8014 1.2545 46.4691 1.3486 46.1368 1.44269C45.8045 1.53679 45.5196 1.67794 45.2348 1.86613C44.9499 2.05433 44.7125 2.24253 44.4752 2.47777C44.0004 2.94826 43.7631 3.5599 43.7631 4.31269ZM44.3328 6.19465C44.0479 6.57104 43.953 6.90039 43.953 7.22973C43.953 7.55907 44.0479 7.84137 44.2378 8.02957C44.4277 8.26482 44.6651 8.35891 44.9499 8.35891C45.2348 8.35891 45.5196 8.31186 45.8045 8.17071C46.0418 8.07661 46.2792 7.88842 46.4691 7.70022C46.659 7.51202 46.8489 7.27678 46.9913 7.04154C47.1338 6.80629 47.2762 6.524 47.4186 6.2417C47.656 5.72416 47.8459 5.15957 47.9408 4.64203C46.4216 4.78318 45.2822 5.15957 44.5701 5.86531C44.855 6.00646 45.1398 6.10055 45.4247 6.10055C45.662 6.10055 45.8519 6.10055 45.9469 6.10055L46.0893 6.38285C45.8994 6.38285 45.7095 6.4299 45.5196 6.4299C45.0449 6.52399 44.6651 6.4299 44.3328 6.19465ZM52.9257 1.67794C52.7833 1.67794 52.5934 1.77204 52.4509 1.91319C52.261 2.05433 52.1186 2.28957 51.9762 2.52482C51.7388 2.94826 51.5014 3.32466 51.359 3.7481C51.7388 3.60695 52.0711 3.41876 52.356 3.18351C52.9257 2.76007 53.1631 2.33663 53.1631 2.00728C53.1156 1.77204 53.0681 1.67794 52.9257 1.67794Z" fill="#F0E0C6"/>
<path d="M55.0618 5.44211H55.9164L55.4891 7.04177C55.4416 7.27702 55.3941 7.46522 55.3941 7.65341C55.3941 7.84161 55.4416 7.9357 55.4891 7.9357C55.5366 7.9357 55.6315 7.88866 55.7739 7.74751C55.8689 7.65341 55.9638 7.51227 56.0588 7.41817L56.2012 7.22997L56.4386 7.46521C56.2962 7.70046 56.1537 7.88866 55.9638 8.07685C55.584 8.45325 55.2992 8.64144 55.0143 8.64144C54.682 8.64144 54.5396 8.4062 54.5396 7.9357C54.5396 7.84161 54.5396 7.79456 54.5396 7.74751C54.4921 7.93571 54.3972 8.07685 54.2073 8.218C53.9224 8.5003 53.5901 8.64144 53.2103 8.64144C52.8305 8.64144 52.5457 8.5003 52.3558 8.26505C52.1184 8.02981 52.0234 7.70046 52.0234 7.32407C52.0234 6.75948 52.2133 6.24194 52.5931 5.86555C52.9729 5.48915 53.4002 5.25391 53.9224 5.25391C54.1598 5.25391 54.3972 5.30096 54.5396 5.44211C54.7295 5.58325 54.8244 5.77145 54.8719 6.00669L55.0618 5.44211ZM54.1598 5.77145C53.9699 5.77145 53.7325 5.86554 53.5901 6.05374C53.4477 6.24194 53.2578 6.43013 53.1628 6.66538C53.0679 6.90062 53.0204 7.13587 53.0204 7.37112C53.0204 7.60636 53.0679 7.79456 53.1628 7.9357C53.2578 8.07685 53.4477 8.17095 53.6376 8.17095C53.8275 8.17095 54.0649 8.07686 54.2073 7.88866C54.5396 7.51227 54.682 7.08882 54.682 6.57128C54.682 6.05374 54.5396 5.77145 54.1598 5.77145Z" fill="#F0E0C6"/>
<path d="M60.4263 7.55899C60.2839 7.88834 60.0465 8.17063 59.7142 8.35883C59.3819 8.54702 59.0496 8.68817 58.6698 8.68817C58.29 8.68817 57.9576 8.54702 57.7203 8.26473C57.5304 8.92342 57.3879 9.39391 57.293 9.6762C56.9132 10.5701 56.391 10.9936 55.7263 10.9936C55.5839 10.9936 55.4415 10.9465 55.3465 10.8524C55.2516 10.7583 55.2041 10.6172 55.2041 10.476C55.2041 10.3349 55.2516 10.2408 55.2991 10.1467C55.394 10.0526 55.489 10.0055 55.5839 10.0055C55.7263 10.0055 55.8213 10.0526 55.8687 10.0996C55.9637 10.1467 56.0112 10.2408 56.0112 10.3819C56.0112 10.476 55.9637 10.6172 55.8213 10.7583L55.8687 10.8054C56.1061 10.8054 56.296 10.476 56.4859 9.81734C56.5809 9.53505 56.6283 9.34686 56.6283 9.20571C56.6758 9.06456 56.6758 8.97046 56.6758 8.92341L57.2455 6.71211C57.0556 6.80621 56.8182 7.04145 56.5809 7.37079L56.391 7.13555C56.5334 6.9003 56.7233 6.71211 56.9607 6.47686C57.198 6.28867 57.293 6.14752 57.3879 6.10047C57.6728 5.25358 57.9576 4.64194 58.195 4.2185C58.4799 3.79506 58.7647 3.46571 59.097 3.23047L59.2395 3.37162C59.0021 3.65391 58.8122 3.98325 58.6698 4.4067C58.5273 4.83014 58.3849 5.20653 58.3374 5.62998C58.7172 5.48883 59.097 5.39473 59.4294 5.39473C59.7617 5.39473 60.0465 5.48883 60.2839 5.72407C60.5213 5.95932 60.6162 6.24161 60.6162 6.57096C60.6637 6.9003 60.6162 7.22965 60.4263 7.55899ZM58.29 6.05342L57.8627 7.88834C57.9102 8.02948 58.0526 8.12358 58.195 8.21768C58.3374 8.31178 58.5273 8.31177 58.7172 8.31177C58.9071 8.31177 59.097 8.21768 59.2869 8.07653C59.6193 7.74718 59.7617 7.3708 59.7617 6.85326C59.7617 6.38277 59.6193 6.10047 59.3819 5.95932C59.2869 5.91227 59.1445 5.86522 59.0021 5.86522C58.8597 5.77112 58.6223 5.86522 58.29 6.05342Z" fill="#F0E0C6"/>
<path d="M64.8892 7.55899C64.7468 7.88834 64.5094 8.17063 64.1771 8.35883C63.8922 8.59407 63.5124 8.68817 63.1327 8.68817C62.7529 8.68817 62.4205 8.54702 62.1832 8.26473C61.9933 8.92342 61.8508 9.39391 61.7559 9.6762C61.3761 10.5701 60.8539 10.9936 60.1892 10.9936C60.0468 10.9936 59.9044 10.9465 59.8094 10.8524C59.7145 10.7583 59.667 10.6172 59.667 10.476C59.667 10.3349 59.7145 10.2408 59.7619 10.1467C59.8569 10.0526 59.9518 10.0055 60.0468 10.0055C60.1892 10.0055 60.2842 10.0526 60.3316 10.0996C60.4266 10.1467 60.4741 10.2408 60.4741 10.3819C60.4741 10.476 60.4266 10.6172 60.2842 10.7583L60.3316 10.8054C60.569 10.8054 60.7589 10.476 60.9488 9.81734C61.0438 9.53505 61.0912 9.34686 61.0912 9.20571C61.1387 9.06456 61.1387 8.97046 61.1387 8.92341L61.7084 6.71211C61.5185 6.80621 61.2811 7.04145 61.0438 7.37079L60.8539 7.13555C60.9963 6.9003 61.1862 6.71211 61.4236 6.47686C61.6609 6.28867 61.7559 6.14752 61.8508 6.10047C62.1357 5.25358 62.4205 4.64194 62.6579 4.2185C62.9428 3.79506 63.2276 3.46571 63.5599 3.23047L63.7023 3.37162C63.465 3.65391 63.2751 3.98325 63.1327 4.4067C62.9902 4.83014 62.8478 5.20653 62.8003 5.62998C63.1801 5.48883 63.5599 5.39473 63.8922 5.39473C64.2246 5.39473 64.5094 5.48883 64.7468 5.72407C64.9842 5.95932 65.0791 6.24161 65.0791 6.57096C65.1266 6.9003 65.0316 7.22965 64.8892 7.55899ZM62.7529 6.05342L62.3256 7.88834C62.3731 8.02948 62.5155 8.12358 62.6579 8.21768C62.8003 8.31178 62.9902 8.31177 63.1801 8.31177C63.37 8.31177 63.5599 8.21768 63.7498 8.07653C64.0821 7.74718 64.2246 7.3708 64.2246 6.85326C64.2246 6.38277 64.0821 6.10047 63.8448 5.95932C63.7498 5.91227 63.6074 5.86522 63.465 5.86522C63.2751 5.77112 63.0377 5.86522 62.7529 6.05342Z" fill="#F0E0C6"/>
<path d="M66.5509 8.68834C66.4085 8.68834 66.2661 8.64129 66.1711 8.54719C66.0762 8.45309 66.0287 8.31194 66.0287 8.1708C66.0287 8.02965 66.0762 7.7944 66.1711 7.51211C66.2661 7.22982 66.361 6.99457 66.4085 6.75932C66.5034 6.52408 66.5509 6.38293 66.5509 6.28883C66.5509 6.19473 66.5034 6.19473 66.456 6.19473C66.3135 6.19473 66.1236 6.42998 65.8388 6.94752L65.459 6.75932C65.9812 5.86539 66.5034 5.44195 66.9307 5.44195C67.2156 5.44195 67.4055 5.63015 67.4055 6.00654C67.4055 6.10064 67.358 6.28883 67.3105 6.52408L66.9307 7.65326C66.8832 7.74736 66.8832 7.84145 66.8832 7.93555C66.8832 8.02965 66.9307 8.0767 66.9782 8.0767C67.1206 8.0767 67.3105 7.84146 67.6428 7.41801L67.8802 7.60621C67.6903 7.9826 67.4529 8.2649 67.1681 8.45309C66.8832 8.54719 66.6933 8.68834 66.5509 8.68834ZM68.0701 3.74818C68.0701 3.88933 68.0226 4.03048 67.9277 4.12458C67.8327 4.26572 67.6903 4.31277 67.5479 4.31277C67.358 4.31277 67.263 4.26572 67.1681 4.17162C67.0731 4.07752 67.0257 3.93638 67.0257 3.79523C67.0257 3.65409 67.0731 3.51293 67.1681 3.37179C67.263 3.27769 67.4055 3.18359 67.5479 3.18359C67.6903 3.18359 67.8327 3.23064 67.9277 3.32474C68.0226 3.46589 68.0701 3.60703 68.0701 3.74818Z" fill="#F0E0C6"/>
<path d="M69.6839 7.08848C70.4435 5.91225 71.1081 5.34766 71.7253 5.34766C71.9152 5.34766 72.0576 5.39471 72.2 5.53586C72.295 5.677 72.3424 5.81815 72.3424 6.00635C72.3424 6.19454 72.2475 6.52388 72.1051 6.99438C71.9152 7.46487 71.8677 7.74716 71.8677 7.84126C71.8677 7.93536 71.9152 8.02946 71.9626 8.02946C72.0576 8.02946 72.1525 7.93536 72.295 7.79422C72.4374 7.65307 72.5798 7.46487 72.6748 7.32372L72.9121 7.55897C72.6748 7.93536 72.4374 8.2647 72.2 8.4529C71.9626 8.6411 71.7253 8.7352 71.5828 8.7352C71.4404 8.7352 71.298 8.68815 71.203 8.59405C71.1081 8.49995 71.0606 8.3588 71.0606 8.1706C71.0606 7.98241 71.1556 7.70011 71.298 7.27667C71.4404 6.85323 71.5354 6.57094 71.5354 6.38274C71.5354 6.19455 71.4879 6.10044 71.3455 6.10044C71.203 6.10044 71.0606 6.19455 70.8707 6.38274C70.6808 6.57094 70.4909 6.75913 70.301 7.04143C70.0162 7.46487 69.7313 7.88831 69.4465 8.4529L69.3041 8.7352H68.5445L68.7344 8.21765C69.0667 7.27667 69.2091 6.71208 69.2091 6.57094C69.2091 6.38274 69.1616 6.28864 69.1142 6.28864C69.0192 6.28864 68.8768 6.42979 68.7344 6.66503C68.6869 6.71208 68.6869 6.75913 68.6394 6.80618C68.6394 6.85323 68.5919 6.90028 68.5445 6.94733C68.497 6.99438 68.497 7.04143 68.497 7.04143L68.1172 6.85323C68.402 6.38274 68.6394 6.05339 68.8768 5.81815C69.1142 5.5829 69.3515 5.48881 69.5889 5.48881C69.6838 5.48881 69.7788 5.53586 69.8738 5.62995C69.9687 5.72405 70.0162 5.81815 70.0162 5.9593C70.0162 6.10044 70.0162 6.24159 69.9687 6.33569C69.9687 6.47684 69.9212 6.57093 69.9212 6.66503C69.8738 6.75913 69.8737 6.85323 69.8263 6.99438C69.6838 6.99438 69.6839 7.04143 69.6839 7.08848Z" fill="#F0E0C6"/>
<path d="M74.0985 7.51226C74.0985 7.93571 74.3834 8.1239 74.9531 8.1239C75.143 8.1239 75.3803 8.07685 75.5702 7.9357C75.8076 7.84161 75.95 7.70046 76.0925 7.51226L76.3298 7.65341C76.045 8.17095 75.5703 8.45325 74.9056 8.5944C74.7632 8.5944 74.6208 8.64144 74.4783 8.64144C74.0985 8.64144 73.7662 8.5003 73.4814 8.26505C73.244 8.02981 73.1016 7.70046 73.1016 7.32407C73.1016 6.94768 73.1965 6.61833 73.4339 6.28899C73.6713 5.95964 73.9561 5.7244 74.2884 5.5362C74.6208 5.34801 74.9531 5.25391 75.2854 5.25391C75.6177 5.25391 75.9026 5.348 76.1399 5.48915C76.3773 5.6303 76.5197 5.86555 76.5197 6.10079C76.5197 6.33604 76.4723 6.57128 76.2824 6.75948C76.1399 6.94767 75.95 7.08882 75.7127 7.18292C75.2379 7.37112 74.7632 7.46521 74.3359 7.46521L74.0985 7.51226ZM74.0985 7.22997C74.4783 7.22997 74.8106 7.13587 75.048 7.04177C75.2854 6.94768 75.4753 6.80653 75.5702 6.66538C75.6652 6.52423 75.7127 6.38308 75.7127 6.19489C75.7127 6.05374 75.6652 5.91259 75.5702 5.81849C75.4753 5.7244 75.3803 5.7244 75.2854 5.7244C75.048 5.7244 74.8581 5.8185 74.6682 5.95964C74.4783 6.10079 74.3359 6.33603 74.241 6.52423C74.146 6.75948 74.0985 6.99472 74.0985 7.22997Z" fill="#F0E0C6"/>
<path d="M77.4693 8.547C77.232 8.4529 77.0421 8.3588 76.9471 8.26471C76.8522 8.17061 76.8047 8.02946 76.8047 7.88831C76.8047 7.74716 76.8522 7.65307 76.8996 7.55897C76.9946 7.46487 77.0895 7.41782 77.1845 7.41782C77.3269 7.41782 77.4219 7.46487 77.5168 7.51192C77.6118 7.60602 77.6592 7.70011 77.6592 7.84126C77.6592 7.98241 77.5643 8.0765 77.4219 8.1706C77.5643 8.31175 77.7542 8.3588 78.039 8.3588C78.6562 8.3588 78.9411 8.1706 78.9411 7.84126C78.9411 7.60601 78.7511 7.46487 78.3713 7.32372C78.2289 7.27668 78.039 7.22962 77.8966 7.13552C77.7542 7.08847 77.6118 6.99438 77.4693 6.85323C77.3269 6.71209 77.2794 6.57093 77.2794 6.42979C77.2794 6.19454 77.3744 5.95929 77.5168 5.81815C77.8017 5.4888 78.2764 5.34766 78.8936 5.34766C79.1784 5.34766 79.4633 5.39471 79.7006 5.53586C79.938 5.62996 80.033 5.81815 80.033 5.9593C80.033 6.10044 79.9855 6.28864 79.8905 6.33569C79.7956 6.42979 79.7006 6.47684 79.5582 6.47684C79.4158 6.47684 79.3208 6.42979 79.2259 6.38274C79.1309 6.33569 79.0835 6.24159 79.0835 6.10044C79.0835 5.9593 79.1309 5.8652 79.2734 5.7711C79.1784 5.72405 79.036 5.67701 78.7986 5.67701C78.5613 5.67701 78.3714 5.72405 78.2289 5.7711C78.039 5.81815 77.9916 5.91225 77.9916 6.00635C77.9916 6.10045 78.039 6.19454 78.1815 6.28864C78.3239 6.38274 78.4663 6.42979 78.6562 6.47684C78.8461 6.52389 78.9885 6.61798 79.1784 6.66503C79.3683 6.75913 79.5107 6.85323 79.6532 6.99437C79.7956 7.13552 79.8431 7.32372 79.8431 7.55897C79.8431 7.79422 79.7481 7.98241 79.5582 8.12356C79.2259 8.4529 78.7511 8.64109 78.1815 8.64109C77.9916 8.68814 77.7067 8.6411 77.4693 8.547Z" fill="#F0E0C6"/>
<path d="M81.0299 8.547C80.7925 8.4529 80.6026 8.3588 80.5077 8.26471C80.4127 8.17061 80.3652 8.02946 80.3652 7.88831C80.3652 7.74716 80.4127 7.65307 80.4602 7.55897C80.5551 7.46487 80.6501 7.41782 80.745 7.41782C80.8875 7.41782 80.9824 7.46487 81.0774 7.51192C81.1723 7.60602 81.2198 7.70011 81.2198 7.84126C81.2198 7.98241 81.1248 8.0765 80.9824 8.1706C81.1248 8.31175 81.3147 8.3588 81.5996 8.3588C82.2167 8.3588 82.5016 8.1706 82.5016 7.84126C82.5016 7.60601 82.3117 7.46487 81.9319 7.32372C81.7895 7.27668 81.5996 7.22962 81.4571 7.13552C81.3147 7.08847 81.1723 6.99438 81.0299 6.85323C80.8875 6.71209 80.84 6.57093 80.84 6.42979C80.84 6.19454 80.9349 5.95929 81.0774 5.81815C81.3622 5.4888 81.8369 5.34766 82.4541 5.34766C82.739 5.34766 83.0238 5.39471 83.2612 5.53586C83.4986 5.62996 83.5935 5.81815 83.5935 5.9593C83.5935 6.10044 83.546 6.28864 83.4511 6.33569C83.3561 6.42979 83.2612 6.47684 83.1188 6.47684C82.9763 6.47684 82.8814 6.42979 82.7864 6.38274C82.6915 6.33569 82.644 6.24159 82.644 6.10044C82.644 5.9593 82.6915 5.8652 82.8339 5.7711C82.739 5.72405 82.5965 5.67701 82.3592 5.67701C82.1218 5.67701 81.9319 5.72405 81.7895 5.7711C81.5996 5.81815 81.5521 5.91225 81.5521 6.00635C81.5521 6.10045 81.5996 6.19454 81.742 6.28864C81.8844 6.38274 82.0268 6.42979 82.2167 6.47684C82.4066 6.52389 82.5491 6.61798 82.739 6.66503C82.9289 6.75913 83.0713 6.85323 83.2137 6.99437C83.3561 7.13552 83.4036 7.32372 83.4036 7.55897C83.4036 7.79422 83.3087 7.98241 83.1188 8.12356C82.7864 8.4529 82.3117 8.64109 81.742 8.64109C81.5521 8.68814 81.2673 8.6411 81.0299 8.547Z" fill="#F0E0C6"/>
<path d="M85.3978 7.60634C85.5402 7.60634 85.6827 7.65339 85.7776 7.74748C85.8726 7.84158 85.92 7.98273 85.92 8.12388C85.92 8.31208 85.8726 8.45322 85.7301 8.54732C85.6352 8.64142 85.4928 8.68847 85.3504 8.68847C85.2079 8.68847 85.0655 8.64142 84.9706 8.54732C84.8756 8.45322 84.8281 8.31207 84.8281 8.17092C84.8281 8.02978 84.8756 7.84158 85.018 7.74748C85.113 7.65339 85.2554 7.60634 85.3978 7.60634ZM86.6796 1.30176H87.5342C86.7746 3.41897 86.1574 5.20683 85.7301 6.71241H85.3978C85.4928 5.30093 85.92 3.51307 86.6796 1.30176Z" fill="#F0E0C6"/>
<path d="M33.5085 37.9526C33.2711 37.9997 33.0337 37.9997 32.7489 37.9997C30.66 37.9997 29.9004 36.9646 29.9004 36.1177C29.9004 35.0826 30.8499 33.8123 33.0812 33.3418L33.366 34.5651C32.0368 34.8003 31.4671 35.3649 31.4671 35.9766C31.4671 36.447 31.9893 36.8705 32.8438 36.8705C33.0812 36.8705 33.3186 36.8705 33.461 36.8234L33.5085 37.9526Z" fill="#F0E0C6"/>
<path d="M33.9355 35.8356C33.9355 34.6123 34.8376 33.2949 36.6891 33.2949C38.2083 33.2949 39.1578 34.1418 39.1578 35.5062C39.1578 36.4472 38.4931 37.9998 36.3568 37.9528C34.6951 37.9998 33.9355 36.8236 33.9355 35.8356ZM37.6386 35.5533C37.6386 34.7534 37.2588 34.2829 36.6416 34.2829C35.9295 34.2829 35.5022 34.9887 35.5022 35.7415C35.5022 36.5884 35.977 37.0118 36.4992 37.0118C37.1638 37.0118 37.6386 36.4943 37.6386 35.5533Z" fill="#F0E0C6"/>
<path d="M40.0596 37.9056C40.107 37.5762 40.107 36.2118 40.107 36.0706V35.2238C40.107 35.1297 40.107 33.577 40.0596 33.4359C40.5818 33.4359 42.1959 33.3888 42.8606 33.3418L42.9081 34.3769L41.4838 34.4239V35.412C41.6262 35.412 42.0535 35.3649 42.7656 35.3649V36.3529H41.4838V36.8705C41.4838 36.9646 41.4838 37.8585 41.4838 37.9526H40.0596V37.9056Z" fill="#F0E0C6"/>
<path d="M43.9053 37.9056C43.9527 37.5762 43.9527 36.2118 43.9527 36.0706V35.2238C43.9527 35.1297 43.9527 33.577 43.9053 33.4359C44.4275 33.4359 46.0416 33.3888 46.7063 33.3418L46.7538 34.3769L45.3295 34.4239V35.412C45.4719 35.412 45.8992 35.3649 46.6113 35.3649V36.3529H45.3295V36.8705C45.3295 36.9646 45.3295 37.8585 45.3295 37.9526H43.9053V37.9056Z" fill="#F0E0C6"/>
<path d="M50.5985 37.9526C50.3611 37.9526 48.0823 37.9056 47.75 37.9056C47.75 37.5762 47.75 36.2118 47.75 36.0706V35.2238C47.75 35.1297 47.75 33.577 47.75 33.4359C48.1298 33.4359 50.2662 33.3418 50.5035 33.3418L50.551 34.3769C50.3136 34.3769 49.3167 34.4239 49.2217 34.4239V35.2238C49.3641 35.2238 50.0763 35.1767 50.3611 35.1767V36.2118C50.1712 36.2118 49.3641 36.1647 49.2217 36.1647V36.9175C49.4116 36.9175 50.3611 36.9175 50.646 36.9175L50.5985 37.9526Z" fill="#F0E0C6"/>
<path d="M54.5868 37.9526C54.3494 37.9526 52.0706 37.9056 51.7383 37.9056C51.7383 37.5762 51.7383 36.2118 51.7383 36.0706V35.2238C51.7383 35.1297 51.7383 33.577 51.7383 33.4359C52.1181 33.4359 54.2544 33.3418 54.4918 33.3418L54.5393 34.3769C54.3019 34.3769 53.3049 34.4239 53.21 34.4239V35.2238C53.3524 35.2238 54.0645 35.1767 54.3494 35.1767V36.2118C54.1595 36.2118 53.3524 36.1647 53.21 36.1647V36.9175C53.3999 36.9175 54.3494 36.9175 54.6342 36.9175L54.5868 37.9526Z" fill="#F0E0C6"/>
<path d="M5.87761 37.7177C5.64024 37.7648 5.40286 37.7648 5.11802 37.7648C3.02913 37.7648 2.26953 36.7297 2.26953 35.8828C2.26953 34.8478 3.21903 33.5774 5.45034 33.1069L5.73519 34.3302C4.40589 34.5655 3.8362 35.13 3.8362 35.7417C3.8362 36.2122 4.35842 36.6356 5.21297 36.6356C5.45034 36.6356 5.68771 36.6356 5.83014 36.5886L5.87761 37.7177Z" fill="#F0E0C6"/>
<path d="M6.16211 37.2002C6.35201 36.8709 8.10857 33.9068 8.72575 32.9658H8.77322C9.53282 34.095 11.2419 36.7768 11.5268 37.1532L10.2924 37.8589L9.72272 36.8709L7.82373 36.965C7.77625 37.0591 7.53888 37.5296 7.39645 37.8589L6.16211 37.2002ZM9.29544 35.977C9.10554 35.6006 8.86817 35.1771 8.77322 34.8948C8.6308 35.1771 8.39342 35.6476 8.251 36.024L9.29544 35.977Z" fill="#F0E0C6"/>
<path d="M15.3726 37.8117C15.2776 37.6705 14.1857 36.3061 13.6635 35.6004V35.7415C13.6635 36.212 13.6635 37.6235 13.711 37.7646H12.2393C12.2393 37.5764 12.2867 36.4943 12.2867 35.7886V35.1299C12.2867 34.5653 12.2393 33.295 12.2393 33.1538H13.711C13.711 33.2479 13.6635 34.5182 13.6635 35.0828V35.271C14.1382 34.6594 15.2302 33.295 15.3726 33.1538L16.417 34.0948C16.1797 34.33 15.4201 35.1299 15.0877 35.4592C15.3251 35.6945 16.2271 36.6825 16.512 36.9177L15.3726 37.8117Z" fill="#F0E0C6"/>
<path d="M20.1678 37.7177C19.9304 37.7177 17.6517 37.6707 17.3193 37.6707C17.3193 37.3414 17.3193 35.9769 17.3193 35.8358V34.9889C17.3193 34.8948 17.3193 33.3422 17.3193 33.201C17.6991 33.201 19.8355 33.1069 20.0729 33.1069L20.1203 34.142C19.883 34.142 18.886 34.1891 18.7911 34.1891V34.9889C18.9335 34.9889 19.6456 34.9419 19.9304 34.9419V35.9769C19.7405 35.9769 18.9335 35.9299 18.7911 35.9299V36.6827C18.9335 36.6827 19.9304 36.6827 20.2153 36.6827L20.1678 37.7177Z" fill="#F0E0C6"/>
<path d="M64.4141 37.6707C64.4615 37.3414 64.4615 35.9769 64.4615 35.8358V34.9889C64.4615 34.8948 64.4615 33.3422 64.4141 33.201C64.9363 33.201 66.5504 33.154 67.2151 33.1069L67.2625 34.142L65.8383 34.1891V35.1771C65.9807 35.1771 66.408 35.13 67.1201 35.13V36.1181H65.8383V36.6356C65.8383 36.7297 65.8383 37.6237 65.8383 37.7177H64.4141V37.6707Z" fill="#F0E0C6"/>
<path d="M67.832 35.6476C67.832 34.4243 68.7341 33.1069 70.5856 33.1069C72.1048 33.1069 73.0543 33.9538 73.0543 35.3182C73.0543 36.2592 72.3896 37.8118 70.2532 37.7648C68.5916 37.8118 67.832 36.6356 67.832 35.6476ZM71.4876 35.3653C71.4876 34.5655 71.1078 34.095 70.4906 34.095C69.7785 34.095 69.3512 34.8007 69.3512 35.5535C69.3512 36.4004 69.826 36.8238 70.3482 36.8238C71.0128 36.8238 71.4876 36.3063 71.4876 35.3653Z" fill="#F0E0C6"/>
<path d="M73.5771 35.6476C73.5771 34.4243 74.4792 33.1069 76.3307 33.1069C77.8499 33.1069 78.7994 33.9538 78.7994 35.3182C78.7994 36.2592 78.1347 37.8118 75.9984 37.7648C74.3367 37.8118 73.5771 36.6356 73.5771 35.6476ZM77.2327 35.3653C77.2327 34.5655 76.8529 34.095 76.2357 34.095C75.5236 34.095 75.0963 34.8007 75.0963 35.5535C75.0963 36.4004 75.5711 36.8238 76.0933 36.8238C76.8054 36.8238 77.2327 36.3063 77.2327 35.3653Z" fill="#F0E0C6"/>
<path d="M79.7008 34.8944C79.7008 34.7533 79.7008 33.3418 79.6533 33.2007C80.8402 33.2007 81.5048 33.2477 82.122 33.2948C83.7836 33.53 84.1159 34.3769 84.1159 34.8944C84.1159 36.8705 81.7422 37.7174 79.6533 37.7174C79.7008 37.4351 79.7008 35.8354 79.7008 35.6943V34.8944ZM81.125 36.5882C81.7422 36.4941 82.5968 36.0236 82.5968 35.1297C82.5968 34.3769 81.8372 34.1887 81.125 34.1887V36.5882Z" fill="#F0E0C6"/>
<path d="M5.54513 24.0261V24.3084C5.54513 25.4376 5.59261 28.7781 5.64008 29.0604H2.12695C2.12695 28.6369 2.17443 26.1433 2.17443 24.4496V22.8969C2.17443 21.6266 2.12695 18.6155 2.12695 18.2861H5.64008C5.64008 18.5214 5.54513 21.4855 5.54513 22.7558" fill="#F0E0C6"/>
<path d="M12.4766 27.7902C12.9038 27.0374 17.0816 20.1212 18.5533 17.8628H18.6958C19.123 18.4744 19.6452 19.2272 20.1675 20.1212C22.1139 23.0852 24.6776 26.9903 25.1523 27.649L22.1614 29.3898C21.7341 28.6841 20.9745 27.3667 20.7846 27.0844L16.2745 27.3197C16.1321 27.5079 15.6099 28.6841 15.2776 29.3898L12.4766 27.7902ZM19.8351 24.9672C19.4079 24.1203 18.8382 23.0852 18.5533 22.4736C18.1735 23.1793 17.6513 24.2615 17.2715 25.1084L19.8351 24.9672Z" fill="#F0E0C6"/>
<path d="M30.042 24.3556C30.042 24.9202 30.0895 28.6371 30.1369 28.8723H26.7662C26.8137 28.4959 26.8137 23.8381 26.8137 23.5087V22.3325C26.8137 21.9091 26.7662 18.6627 26.7188 18.3804C28.7602 18.3804 30.8491 18.4274 32.2258 18.5686C34.4571 18.8509 35.644 19.6977 35.644 21.0622C35.644 22.2854 34.8844 23.2264 33.6975 24.0263C34.1248 24.5438 36.4511 26.8022 36.8309 27.2727L34.0773 29.2958C33.745 28.7312 30.8016 24.5908 30.4218 23.9322C31.0864 23.5558 32.1309 22.7559 32.1309 21.7679C32.1309 21.0622 31.6561 20.4035 29.9945 20.4035V24.3556H30.042Z" fill="#F0E0C6"/>
<path d="M36.8311 27.7902C37.2583 27.0374 41.4361 20.1212 42.9078 17.8628H43.0502C44.8543 20.5446 48.8896 26.8021 49.5068 27.649L46.5159 29.3898C46.0886 28.6841 45.329 27.3667 45.1866 27.0844L40.6765 27.3197C40.5341 27.5079 40.0119 28.6841 39.6795 29.3898L36.8311 27.7902ZM44.1422 24.9672C43.7149 24.1203 43.1452 23.0852 42.8603 22.4736C42.4805 23.1793 41.9583 24.2615 41.5785 25.1084L44.1422 24.9672Z" fill="#F0E0C6"/>
<path d="M60.6638 19.6978C60.0941 20.4976 55.489 27.7903 54.3496 29.5311H54.2072C52.6405 27.1786 48.7951 20.6388 48.3203 19.839L51.5486 18.0981C51.8809 18.7568 54.0173 23.2265 54.492 24.2145C54.9193 23.2265 57.293 18.5686 57.4829 18.0981L60.6638 19.6978Z" fill="#F0E0C6"/>
<path d="M59.2393 27.7902C59.6665 27.0374 63.8443 20.1212 65.316 17.8628H65.4584C67.2625 20.5446 71.2978 26.8021 71.915 27.649L68.9241 29.3898C68.4968 28.6841 67.7372 27.3667 67.5948 27.0844L63.0847 27.3197C62.9423 27.5079 62.4201 28.6841 62.0877 29.3898L59.2393 27.7902ZM66.5978 24.9672C66.1706 24.1203 65.6009 23.0852 65.316 22.4736C64.9362 23.1793 64.414 24.2615 64.0342 25.1084L66.5978 24.9672Z" fill="#F0E0C6"/>
<path d="M73.0547 28.8725C73.1496 27.8375 73.5294 20.2625 73.6719 18.2865L73.8143 18.1924C75.9506 19.745 80.7931 23.3207 81.3153 23.6971C81.3153 22.8973 81.2678 18.9452 81.2678 18.2865L84.3537 18.3806C84.2587 19.5568 84.1163 21.7211 83.9739 23.8853C83.8315 26.0496 83.7365 28.1197 83.689 29.1078L83.5466 29.2019C81.7426 28.0257 76.3304 23.8383 76.0931 23.6501C76.0931 24.2617 76.0931 28.5432 76.1405 29.0137L73.0547 28.8725Z" fill="#F0E0C6"/>
<path d="M5.54492 23.0852C6.39947 21.956 9.20048 18.5685 9.5328 18.145L12.049 20.3093C11.4793 20.9209 9.67522 22.7088 8.86815 23.5086C9.39038 24.1203 11.5742 26.3316 12.1914 26.9432L9.5328 29.2016C9.29543 28.8722 6.54189 25.3906 5.54492 23.9791" fill="#F0E0C6"/>
</svg>
